<svg width="26" height="26" viewBox="0 0 26 26" fill="none" xmlns="http://www.w3.org/2000/svg">
<circle cx="12.6339" cy="12.6339" r="12.6339" fill="#B1B1B1"/>
<path d="M12.5622 6.67709C14.4788 6.67709 14.7061 6.68427 15.4628 6.71896C16.2453 6.75485 17.051 6.93311 17.6211 7.50319C18.1966 8.07866 18.3695 8.87665 18.4054 9.66148C18.4401 10.4182 18.4472 10.6455 18.4472 12.5621C18.4472 14.4787 18.4401 14.7061 18.4054 15.4628C18.3701 16.241 18.1876 17.0546 17.6211 17.6211C17.0457 18.1965 16.2483 18.3694 15.4628 18.4053C14.7061 18.44 14.4788 18.4472 12.5622 18.4472C10.6456 18.4472 10.4183 18.44 9.66154 18.4053C8.88927 18.37 8.06496 18.1834 7.50326 17.6211C6.93078 17.0486 6.75491 16.2428 6.71902 15.4628C6.68433 14.7061 6.67715 14.4787 6.67715 12.5621C6.67715 10.6455 6.68433 10.4182 6.71902 9.66148C6.75432 8.88622 6.93856 8.06789 7.50326 7.50319C8.07752 6.92893 8.87851 6.75485 9.66154 6.71896C10.4183 6.68427 10.6456 6.67709 12.5622 6.67709ZM12.5622 5.38379C10.6127 5.38379 10.368 5.39216 9.60232 5.42686C8.49267 5.47771 7.39079 5.78637 6.58861 6.58855C5.78344 7.39372 5.47777 8.49321 5.42692 9.60226C5.39222 10.368 5.38385 10.6126 5.38385 12.5621C5.38385 14.5116 5.39222 14.7563 5.42692 15.522C5.47777 16.6305 5.78763 17.7353 6.58861 18.5357C7.39319 19.3403 8.49446 19.6466 9.60232 19.6974C10.368 19.7321 10.6127 19.7405 12.5622 19.7405C14.5117 19.7405 14.7564 19.7321 15.5221 19.6974C16.6311 19.6466 17.7342 19.3373 18.5358 18.5357C19.3415 17.7299 19.6466 16.6311 19.6975 15.522C19.7322 14.7563 19.7405 14.5116 19.7405 12.5621C19.7405 10.6126 19.7322 10.368 19.6975 9.60226C19.6466 8.49261 19.3373 7.39014 18.5358 6.58855C17.7324 5.78518 16.6281 5.47711 15.5221 5.42686C14.7564 5.39216 14.5117 5.38379 12.5622 5.38379Z" fill="white"/>
<path d="M12.5622 8.87598C10.5266 8.87598 8.87616 10.5264 8.87616 12.5621C8.87616 14.5977 10.5266 16.2481 12.5622 16.2481C14.5979 16.2481 16.2483 14.5977 16.2483 12.5621C16.2483 10.5264 14.5979 8.87598 12.5622 8.87598ZM12.5622 14.9548C11.2408 14.9548 10.1695 13.8835 10.1695 12.5621C10.1695 11.2406 11.2408 10.1693 12.5622 10.1693C13.8836 10.1693 14.955 11.2406 14.955 12.5621C14.955 13.8835 13.8836 14.9548 12.5622 14.9548Z" fill="white"/>
<path d="M16.3941 9.59145C16.8699 9.59145 17.2555 9.20579 17.2555 8.73005C17.2555 8.25431 16.8699 7.86865 16.3941 7.86865C15.9184 7.86865 15.5327 8.25431 15.5327 8.73005C15.5327 9.20579 15.9184 9.59145 16.3941 9.59145Z" fill="white"/>
</svg>
