<svg width="270" height="42" viewBox="0 0 270 42" fill="none" xmlns="http://www.w3.org/2000/svg">
<path d="M262.648 41.6666H159.006C154.942 41.6666 151.653 38.3692 151.653 34.3141V7.35243C151.653 3.28903 154.942 0 159.006 0H262.648C266.711 0 270 3.28903 270 7.35243V34.3141C270 38.3692 266.703 41.6666 262.648 41.6666Z" fill="black"/>
<path d="M191.804 11.9489L191.205 13.7808H190.431L192.412 7.95215H193.32L195.31 13.7808H194.511L193.886 11.9489H191.804ZM193.72 11.3661L193.145 9.68409C193.012 9.30107 192.929 8.95967 192.845 8.61828H192.829C192.745 8.968 192.645 9.31772 192.537 9.67577L191.971 11.3661H193.72Z" fill="white"/>
<path d="M196.243 9.60059L197.067 11.957C197.209 12.3317 197.317 12.6814 197.4 13.0312H197.425C197.517 12.6814 197.641 12.3401 197.783 11.957L198.599 9.60059H199.39L197.75 13.7889H197.025L195.435 9.60059H196.243Z" fill="white"/>
<path d="M202.396 13.7808L202.338 13.2563H202.313C202.08 13.581 201.63 13.8808 201.03 13.8808C200.181 13.8808 199.748 13.2812 199.748 12.6817C199.748 11.6742 200.647 11.1163 202.263 11.1246V11.0414C202.263 10.6917 202.171 10.0755 201.313 10.0755C200.922 10.0755 200.522 10.2004 200.223 10.3836L200.048 9.88398C200.389 9.65916 200.897 9.50928 201.422 9.50928C202.704 9.50928 203.012 10.3836 203.012 11.2162V12.7817C203.012 13.148 203.029 13.4977 203.079 13.7892H202.396V13.7808ZM202.279 11.6492C201.447 11.6326 200.506 11.7825 200.506 12.5901C200.506 13.0814 200.831 13.3146 201.222 13.3146C201.763 13.3146 202.113 12.9648 202.229 12.6151C202.254 12.5402 202.271 12.4486 202.271 12.3736V11.6492H202.279Z" fill="white"/>
<path d="M205.094 8.41847C205.102 8.67659 204.911 8.88476 204.611 8.88476C204.344 8.88476 204.153 8.67659 204.153 8.41847C204.153 8.15201 204.353 7.94385 204.627 7.94385C204.919 7.95217 205.094 8.15201 205.094 8.41847ZM204.244 13.7808V9.59252H205.01V13.7808H204.244Z" fill="white"/>
<path d="M206.268 7.64404H207.034V13.7808H206.268V7.64404Z" fill="white"/>
<path d="M210.631 13.7808L210.573 13.2563H210.548C210.315 13.581 209.865 13.8808 209.265 13.8808C208.416 13.8808 207.983 13.2812 207.983 12.6817C207.983 11.6742 208.882 11.1163 210.498 11.1246V11.0414C210.498 10.6917 210.406 10.0755 209.549 10.0755C209.157 10.0755 208.758 10.2004 208.458 10.3836L208.283 9.88398C208.624 9.65916 209.132 9.50928 209.657 9.50928C210.939 9.50928 211.247 10.3836 211.247 11.2162V12.7817C211.247 13.148 211.264 13.4977 211.314 13.7892H210.631V13.7808ZM210.523 11.6492C209.69 11.6326 208.749 11.7825 208.749 12.5901C208.749 13.0814 209.074 13.3146 209.465 13.3146C210.007 13.3146 210.356 12.9648 210.473 12.6151C210.498 12.5402 210.514 12.4486 210.514 12.3736V11.6492H210.523Z" fill="white"/>
<path d="M212.446 13.7808C212.463 13.4977 212.48 13.073 212.48 12.6983V7.64404H213.237V10.2753H213.254C213.52 9.80897 214.003 9.50921 214.678 9.50921C215.719 9.50921 216.451 10.3752 216.443 11.6408C216.443 13.1396 215.502 13.8807 214.57 13.8807C213.97 13.8807 213.479 13.6476 213.171 13.098H213.146L213.112 13.7891H212.446V13.7808ZM213.237 12.1071C213.237 12.1987 213.254 12.2986 213.271 12.3819C213.412 12.9065 213.862 13.2729 214.411 13.2729C215.202 13.2729 215.685 12.6234 215.685 11.6658C215.685 10.8248 215.252 10.1087 214.436 10.1087C213.92 10.1087 213.437 10.4668 213.279 11.0413C213.262 11.1246 213.237 11.2328 213.237 11.3494V12.1071Z" fill="white"/>
<path d="M217.409 7.64404H218.175V13.7808H217.409V7.64404Z" fill="white"/>
<path d="M219.874 11.8324C219.89 12.8649 220.548 13.2896 221.306 13.2896C221.847 13.2896 222.18 13.198 222.463 13.0731L222.596 13.6143C222.33 13.7309 221.872 13.8724 221.206 13.8724C219.915 13.8724 219.149 13.0231 219.149 11.7658C219.149 10.5085 219.89 9.50928 221.114 9.50928C222.48 9.50928 222.846 10.7083 222.846 11.4827C222.846 11.6409 222.83 11.7575 222.821 11.8407H219.874V11.8324ZM222.105 11.2829C222.113 10.7999 221.905 10.0505 221.048 10.0505C220.273 10.0505 219.94 10.7583 219.882 11.2829H222.105Z" fill="white"/>
<path d="M229.408 11.6576C229.408 13.2064 228.333 13.8808 227.326 13.8808C226.194 13.8808 225.319 13.0482 225.319 11.7326C225.319 10.3337 226.235 9.50934 227.393 9.50934C228.592 9.50101 229.408 10.3753 229.408 11.6576ZM226.085 11.6992C226.085 12.6152 226.61 13.3063 227.359 13.3063C228.084 13.3063 228.633 12.6235 228.633 11.6826C228.633 10.9748 228.275 10.0755 227.376 10.0755C226.477 10.0755 226.085 10.9082 226.085 11.6992Z" fill="white"/>
<path d="M230.365 10.7333C230.365 10.3003 230.357 9.95059 230.332 9.60087H231.006L231.048 10.292H231.065C231.273 9.8923 231.756 9.50928 232.447 9.50928C233.03 9.50928 233.929 9.85067 233.929 11.2912V13.7892H233.171V11.3744C233.171 10.7 232.921 10.1421 232.205 10.1421C231.706 10.1421 231.314 10.5001 231.181 10.9165C231.148 11.0081 231.131 11.1413 231.131 11.2745V13.7892H230.365V10.7333Z" fill="white"/>
<path d="M237.926 8.40186V9.60089H239.017V10.1838H237.926V12.4403C237.926 12.9565 238.067 13.2563 238.492 13.2563C238.692 13.2563 238.842 13.2313 238.933 13.2063L238.967 13.7725C238.817 13.8308 238.584 13.8808 238.292 13.8808C237.934 13.8808 237.651 13.7642 237.468 13.5644C237.251 13.3396 237.176 12.9649 237.176 12.4736V10.1921H236.527V9.60922H237.176V8.61002L237.926 8.40186Z" fill="white"/>
<path d="M239.866 7.64404H240.632V10.2586H240.649C240.773 10.0421 240.965 9.85061 241.19 9.71738C241.415 9.58415 241.681 9.50089 241.964 9.50089C242.522 9.50089 243.43 9.84228 243.43 11.2911V13.7808H242.664V11.3744C242.664 10.6999 242.414 10.1337 241.698 10.1337C241.206 10.1337 240.815 10.4834 240.674 10.8914C240.632 10.9914 240.624 11.1079 240.624 11.2578V13.7808H239.858V7.64404H239.866Z" fill="white"/>
<path d="M245.095 11.8324C245.112 12.8649 245.769 13.2896 246.527 13.2896C247.068 13.2896 247.402 13.198 247.685 13.0731L247.818 13.6143C247.551 13.7309 247.093 13.8724 246.427 13.8724C245.137 13.8724 244.371 13.0231 244.371 11.7658C244.371 10.5085 245.112 9.50928 246.336 9.50928C247.701 9.50928 248.068 10.7083 248.068 11.4827C248.068 11.6409 248.051 11.7575 248.043 11.8407H245.095V11.8324ZM247.327 11.2829C247.335 10.7999 247.127 10.0505 246.269 10.0505C245.495 10.0505 245.162 10.7583 245.103 11.2829H247.327Z" fill="white"/>
<path d="M198.707 29.1351C198.141 29.335 197.034 29.668 195.718 29.668C194.244 29.668 193.037 29.2933 192.079 28.3857C191.247 27.5781 190.722 26.2791 190.722 24.7636C190.739 21.866 192.729 19.7427 195.993 19.7427C197.117 19.7427 198 19.9925 198.416 20.1923L198.108 21.2165C197.592 20.9833 196.942 20.7918 195.96 20.7918C193.586 20.7918 192.046 22.2657 192.046 24.7054C192.046 27.1784 193.536 28.6355 195.801 28.6355C196.626 28.6355 197.184 28.519 197.475 28.3774V25.4797H195.493V24.4722H198.699V29.1351H198.707Z" fill="white"/>
<path d="M206.992 26.0209C206.992 28.6022 205.202 29.7263 203.512 29.7263C201.622 29.7263 200.164 28.3357 200.164 26.1292C200.164 23.7894 201.697 22.4238 203.628 22.4238C205.635 22.4238 206.992 23.881 206.992 26.0209ZM201.447 26.0876C201.447 27.6197 202.329 28.7687 203.57 28.7687C204.786 28.7687 205.693 27.628 205.693 26.0542C205.693 24.8719 205.102 23.3731 203.603 23.3731C202.105 23.3731 201.447 24.7553 201.447 26.0876Z" fill="white"/>
<path d="M214.928 26.0209C214.928 28.6022 213.137 29.7263 211.447 29.7263C209.557 29.7263 208.1 28.3357 208.1 26.1292C208.1 23.7894 209.632 22.4238 211.564 22.4238C213.57 22.4238 214.928 23.881 214.928 26.0209ZM209.382 26.0876C209.382 27.6197 210.265 28.7687 211.505 28.7687C212.721 28.7687 213.629 27.628 213.629 26.0542C213.629 24.8719 213.037 23.3731 211.539 23.3731C210.04 23.3731 209.382 24.7553 209.382 26.0876Z" fill="white"/>
<path d="M222.555 22.582C222.53 23.0899 222.497 23.6478 222.497 24.5054V28.5605C222.497 30.1676 222.18 31.1418 221.497 31.7496C220.823 32.3825 219.84 32.5906 218.958 32.5906C218.125 32.5906 217.201 32.3908 216.635 32.0161L216.951 31.0502C217.417 31.3416 218.133 31.5997 218.999 31.5997C220.298 31.5997 221.248 30.9253 221.248 29.16V28.3773H221.223C220.831 29.0268 220.082 29.5514 218.999 29.5514C217.267 29.5514 216.027 28.0776 216.027 26.1458C216.027 23.781 217.575 22.4404 219.174 22.4404C220.39 22.4404 221.048 23.0733 221.356 23.6561H221.381L221.439 22.5986H222.555V22.582ZM221.239 25.3381C221.239 25.1216 221.223 24.9384 221.164 24.7636C220.931 24.0308 220.315 23.423 219.391 23.423C218.175 23.423 217.309 24.4472 217.309 26.0625C217.309 27.4364 218 28.5772 219.374 28.5772C220.157 28.5772 220.865 28.0859 221.139 27.2782C221.214 27.0617 221.239 26.8119 221.239 26.6038V25.3381Z" fill="white"/>
<path d="M224.611 19.3179H225.885V29.568H224.611V19.3179Z" fill="white"/>
<path d="M228.725 26.3041C228.75 28.0194 229.849 28.7271 231.123 28.7271C232.031 28.7271 232.58 28.5689 233.055 28.3608L233.271 29.2684C232.822 29.4682 232.056 29.7013 230.948 29.7013C228.8 29.7013 227.509 28.2858 227.509 26.1792C227.509 24.0725 228.75 22.4155 230.79 22.4155C233.071 22.4155 233.679 24.4223 233.679 25.7046C233.679 25.9627 233.654 26.1708 233.638 26.2957H228.725V26.3041ZM232.455 25.3965C232.472 24.5888 232.122 23.3315 230.698 23.3315C229.416 23.3315 228.85 24.5138 228.75 25.3965H232.455Z" fill="white"/>
<path d="M238.367 19.9508C238.975 19.8509 239.766 19.7593 240.782 19.7593C242.022 19.7593 242.93 20.0507 243.513 20.567C244.046 21.0249 244.362 21.7327 244.362 22.607C244.362 23.4896 244.104 24.1807 243.613 24.6887C242.947 25.3964 241.864 25.7545 240.64 25.7545C240.266 25.7545 239.916 25.7378 239.633 25.6712V29.5681H238.375V19.9508H238.367ZM239.624 24.6387C239.899 24.7136 240.241 24.7386 240.665 24.7386C242.181 24.7386 243.105 24.0059 243.105 22.657C243.105 21.3746 242.197 20.7501 240.807 20.7501C240.257 20.7501 239.841 20.7918 239.624 20.8501V24.6387Z" fill="white"/>
<path d="M245.936 19.3179H247.21V29.568H245.936V19.3179Z" fill="white"/>
<path d="M253.222 29.5681L253.122 28.6854H253.08C252.689 29.235 251.94 29.7263 250.94 29.7263C249.525 29.7263 248.8 28.7271 248.8 27.7196C248.8 26.0292 250.299 25.105 253.005 25.1216V24.9801C253.005 24.4055 252.847 23.3647 251.415 23.3647C250.766 23.3647 250.083 23.5646 249.6 23.881L249.308 23.0483C249.883 22.6736 250.724 22.4321 251.606 22.4321C253.746 22.4321 254.263 23.8893 254.263 25.2882V27.9027C254.263 28.5106 254.288 29.1018 254.379 29.5764H253.222V29.5681ZM253.03 26.0043C251.64 25.9793 250.074 26.2208 250.074 27.578C250.074 28.4023 250.624 28.7937 251.273 28.7937C252.181 28.7937 252.764 28.2108 252.964 27.6196C253.005 27.4864 253.039 27.3449 253.039 27.2116V26.0043H253.03Z" fill="white"/>
<path d="M256.661 22.582L258.193 26.7121C258.351 27.1783 258.526 27.7196 258.643 28.1442H258.668C258.801 27.7279 258.942 27.195 259.117 26.6871L260.499 22.5904H261.84L259.933 27.5697C259.026 29.9678 258.401 31.1918 257.535 31.9412C256.919 32.4907 256.294 32.7072 255.978 32.7655L255.662 31.6997C255.978 31.5998 256.394 31.3916 256.777 31.0752C257.127 30.8004 257.56 30.3092 257.843 29.6597C257.901 29.5265 257.943 29.4265 257.943 29.3516C257.943 29.2767 257.918 29.1767 257.86 29.0185L255.279 22.582H256.661Z" fill="white"/>
<path d="M183.336 19.8676L178.482 17.0615L174.485 20.9251L178.132 24.4556L183.328 21.458C183.611 21.2915 183.786 21 183.786 20.667C183.794 20.3256 183.619 20.0341 183.336 19.8676Z" fill="#FFCE00"/>
<path d="M177.657 16.5868L172.312 13.506L160.604 7.50244L173.827 20.2922L177.657 16.5868Z" fill="#00F076"/>
<path d="M160.796 34.1563L172.328 27.8031L177.308 24.9304L173.827 21.5664L160.796 34.1563Z" fill="#F83547"/>
<path d="M159.822 8.01855L159.805 33.8395L173.169 20.9249L159.822 8.01855Z" fill="#00CCFF"/>
<path d="M110.994 41.6666H7.35243C3.28903 41.6666 0 38.3775 0 34.3141V7.35243C0 3.28902 3.28903 0 7.35243 0H110.994C115.058 0 118.347 3.28902 118.347 7.35243V34.3141C118.347 38.3775 115.049 41.6666 110.994 41.6666Z" fill="black"/>
<path d="M11.3076 16.8696C8.77631 21.2661 10.3834 27.944 13.1894 31.9908C14.5883 34.0142 16.0038 35.8294 17.944 35.8294C17.9773 35.8294 18.0189 35.8294 18.0522 35.8294C18.9598 35.7961 19.6259 35.513 20.2588 35.2382C20.9749 34.9301 21.7159 34.622 22.8733 34.622C23.9808 34.622 24.6802 34.9301 25.363 35.2215C26.0375 35.513 26.7286 35.8127 27.7444 35.7961C29.9343 35.7544 31.2749 33.7977 32.4573 32.0657C33.6896 30.2588 34.3141 28.5102 34.5223 27.8358L34.5306 27.8108C34.5723 27.6942 34.514 27.561 34.3974 27.511L34.3808 27.5027C33.9977 27.3445 30.6171 25.8457 30.5838 21.7657C30.5505 18.4516 33.1151 16.6947 33.6314 16.3783L33.6563 16.3617C33.7146 16.3284 33.7479 16.2701 33.7646 16.2034C33.7812 16.1368 33.7646 16.0702 33.723 16.0119C31.9494 13.4223 29.2349 13.031 28.1441 12.981C27.9859 12.9644 27.8194 12.9561 27.6612 12.9561C26.3789 12.9561 25.1465 13.439 24.164 13.8304C23.4812 14.0968 22.89 14.33 22.4903 14.33C22.0323 14.33 21.4411 14.0968 20.7584 13.822C19.8424 13.4557 18.8016 13.0476 17.7025 13.0476C17.6775 13.0476 17.6525 13.0476 17.6275 13.0476C15.0629 13.081 12.6482 14.5464 11.3076 16.8696Z" fill="white"/>
<path d="M28.1608 5.84521C26.612 5.91182 24.7552 6.86106 23.6394 8.16835C22.6985 9.25914 21.7742 11.0827 22.0157 12.9229C22.0324 13.0394 22.124 13.1227 22.2405 13.1394C22.3488 13.1477 22.4487 13.1477 22.5569 13.1477C24.0724 13.1477 25.7044 12.3067 26.8202 10.9578C27.9942 9.53392 28.5854 7.70206 28.4106 6.06171C28.4022 5.93681 28.2857 5.83689 28.1608 5.84521Z" fill="white"/>
<path d="M42.5824 9.71721C43.0737 9.64227 43.6482 9.58398 44.2894 9.58398C45.4468 9.58398 46.2628 9.85044 46.8123 10.3584C47.3619 10.8663 47.6866 11.5824 47.6866 12.5899C47.6866 13.6058 47.3702 14.4384 46.7957 15.0046C46.2128 15.5875 45.2553 15.8956 44.0479 15.8956C43.4734 15.8956 42.9987 15.8706 42.5907 15.8207V9.71721H42.5824ZM43.3818 15.2211C43.5816 15.2544 43.8814 15.2628 44.1978 15.2628C45.9131 15.2628 46.8456 14.3052 46.8456 12.6232C46.854 11.1577 46.0213 10.2251 44.3227 10.2251C43.9063 10.2251 43.5982 10.2584 43.3818 10.3084V15.2211Z" fill="white"/>
<path d="M52.7659 13.5892C52.7659 15.2378 51.6168 15.9623 50.5427 15.9623C49.3353 15.9623 48.4027 15.0796 48.4027 13.6641C48.4027 12.1653 49.3853 11.291 50.6176 11.291C51.8916 11.291 52.7659 12.2153 52.7659 13.5892ZM49.2187 13.6308C49.2187 14.6133 49.7766 15.3461 50.576 15.3461C51.3503 15.3461 51.9332 14.6217 51.9332 13.6142C51.9332 12.8564 51.5585 11.8989 50.5926 11.8989C49.6351 11.8989 49.2187 12.7815 49.2187 13.6308Z" fill="white"/>
<path d="M54.0316 11.3906L54.6228 13.6555C54.756 14.1551 54.8726 14.613 54.9558 15.071H54.9808C55.0807 14.6214 55.2306 14.1384 55.3805 13.6638L56.1049 11.3906H56.7877L57.4788 13.6222C57.6453 14.1551 57.7786 14.6297 57.8785 15.0793H57.9035C57.9784 14.6297 58.095 14.1551 58.2449 13.6305L58.8777 11.3906H59.677L58.2365 15.8537H57.4955L56.8127 13.7221C56.6545 13.2225 56.5296 12.7812 56.413 12.2566H56.3963C56.2881 12.7895 56.1465 13.2558 55.9883 13.7304L55.2722 15.8537H54.5312L53.1823 11.3906H54.0316Z" fill="white"/>
<path d="M60.4847 12.5983C60.4847 12.1404 60.4764 11.7573 60.4514 11.391H61.1675L61.2175 12.1237H61.2341C61.4506 11.699 61.9669 11.2827 62.7079 11.2827C63.3241 11.2827 64.2817 11.6574 64.2817 13.1812V15.8457H63.4657V13.2728C63.4657 12.5567 63.1992 11.9572 62.4332 11.9572C61.9003 11.9572 61.4839 12.3319 61.3424 12.7898C61.3091 12.8898 61.2841 13.0313 61.2841 13.1645V15.8457H60.4681V12.5983H60.4847Z" fill="white"/>
<path d="M65.5973 9.30078H66.4133V15.8539H65.5973V9.30078Z" fill="white"/>
<path d="M71.809 13.5892C71.809 15.2378 70.6599 15.9623 69.5857 15.9623C68.3784 15.9623 67.4458 15.0796 67.4458 13.6641C67.4458 12.1653 68.4283 11.291 69.6607 11.291C70.943 11.291 71.809 12.2153 71.809 13.5892ZM68.2701 13.6308C68.2701 14.6133 68.828 15.3461 69.6274 15.3461C70.4018 15.3461 70.9846 14.6217 70.9846 13.6142C70.9846 12.8564 70.6099 11.8989 69.644 11.8989C68.6865 11.8989 68.2701 12.7815 68.2701 13.6308Z" fill="white"/>
<path d="M75.2978 15.854L75.2312 15.2878H75.2062C74.9564 15.6375 74.4818 15.9539 73.8407 15.9539C72.9331 15.9539 72.4751 15.3211 72.4751 14.6716C72.4751 13.5892 73.4327 12.998 75.1563 13.0146V12.923C75.1563 12.5567 75.0564 11.8905 74.1404 11.8905C73.7241 11.8905 73.2911 12.0154 72.9747 12.2236L72.7915 11.6907C73.1579 11.4492 73.6908 11.291 74.257 11.291C75.6226 11.291 75.9556 12.2236 75.9556 13.1146V14.7882C75.9556 15.1712 75.9723 15.5543 76.0306 15.854H75.2978ZM75.1813 13.5725C74.2903 13.5559 73.2911 13.7141 73.2911 14.58C73.2911 15.1046 73.6408 15.3544 74.0572 15.3544C74.64 15.3544 75.0064 14.9797 75.1313 14.605C75.1563 14.5218 75.1813 14.4302 75.1813 14.3469V13.5725Z" fill="white"/>
<path d="M81.1181 9.30078V14.6965C81.1181 15.0961 81.1265 15.5458 81.1514 15.8539H80.427L80.3937 15.0795H80.3771C80.1273 15.5791 79.586 15.9538 78.8533 15.9538C77.7708 15.9538 76.9382 15.0378 76.9382 13.6889C76.9298 12.2068 77.8541 11.2909 78.9449 11.2909C79.6277 11.2909 80.0856 11.6156 80.2938 11.9736H80.3105V9.30911H81.1181V9.30078ZM80.3105 13.206C80.3105 13.1061 80.3021 12.9645 80.2772 12.8646C80.1606 12.3483 79.7193 11.9237 79.1031 11.9237C78.2621 11.9237 77.7625 12.6564 77.7625 13.6473C77.7625 14.5549 78.2038 15.296 79.0781 15.296C79.6193 15.296 80.1189 14.9379 80.2688 14.3301C80.2938 14.2218 80.3021 14.1053 80.3021 13.9804V13.206H80.3105Z" fill="white"/>
<path d="M88.4456 13.5892C88.4456 15.2378 87.2965 15.9623 86.2223 15.9623C85.015 15.9623 84.0824 15.0796 84.0824 13.6641C84.0824 12.1653 85.0649 11.291 86.2973 11.291C87.5796 11.291 88.4456 12.2153 88.4456 13.5892ZM84.9067 13.6308C84.9067 14.6133 85.4646 15.3461 86.264 15.3461C87.0384 15.3461 87.6212 14.6217 87.6212 13.6142C87.6212 12.8564 87.2465 11.8989 86.2806 11.8989C85.3231 11.8989 84.9067 12.7815 84.9067 13.6308Z" fill="white"/>
<path d="M89.4614 12.5983C89.4614 12.1404 89.4531 11.7573 89.4281 11.391H90.1442L90.1942 12.1237H90.2108C90.4273 11.699 90.9436 11.2827 91.6846 11.2827C92.3008 11.2827 93.2584 11.6574 93.2584 13.1812V15.8457H92.4423V13.2728C92.4423 12.5567 92.1759 11.9572 91.4098 11.9572C90.8769 11.9572 90.4606 12.3319 90.3191 12.7898C90.2857 12.8898 90.2608 13.0313 90.2608 13.1645V15.8457H89.4448V12.5983H89.4614Z" fill="white"/>
<path d="M97.505 10.1084V11.3907H98.6707V12.0069H97.505V14.4133C97.505 14.9712 97.6632 15.2792 98.1128 15.2792C98.321 15.2792 98.4792 15.2543 98.5791 15.221L98.6124 15.8288C98.4542 15.8954 98.2044 15.9371 97.8964 15.9371C97.5217 15.9371 97.2136 15.8205 97.0221 15.5957C96.7889 15.3542 96.7056 14.9628 96.7056 14.4299V11.9902H96.0145V11.374H96.7056V10.3166L97.505 10.1084Z" fill="white"/>
<path d="M99.5701 9.30078H100.386V12.0819H100.403C100.536 11.8487 100.736 11.6489 100.986 11.5073C101.227 11.3658 101.51 11.2742 101.818 11.2742C102.418 11.2742 103.375 11.6489 103.375 13.181V15.8372H102.559V13.2726C102.559 12.5565 102.293 11.9487 101.527 11.9487C101.002 11.9487 100.586 12.315 100.436 12.7563C100.386 12.8646 100.378 12.9895 100.378 13.1477V15.8372H99.5618V9.30078H99.5701Z" fill="white"/>
<path d="M105.132 13.7724C105.149 14.8715 105.848 15.3211 106.664 15.3211C107.247 15.3211 107.597 15.2212 107.897 15.088L108.038 15.6708C107.755 15.8041 107.264 15.9456 106.556 15.9456C105.182 15.9456 104.358 15.038 104.358 13.6974C104.358 12.3485 105.149 11.291 106.448 11.291C107.905 11.291 108.296 12.5733 108.296 13.3977C108.296 13.5642 108.28 13.6891 108.271 13.7724H105.132ZM107.514 13.1895C107.522 12.6732 107.305 11.8739 106.389 11.8739C105.565 11.8739 105.207 12.6316 105.149 13.1895H107.514Z" fill="white"/>
<path d="M44.889 27.736L43.7649 31.1499H42.316L46.0047 20.3003H47.6951L51.3921 31.1499H49.8933L48.7359 27.736H44.889ZM48.4445 26.6369L47.387 23.5144C47.1455 22.8066 46.9873 22.1655 46.8208 21.5326H46.7875C46.6292 22.1738 46.4461 22.8399 46.2379 23.4977L45.1804 26.6369H48.4445Z" fill="white"/>
<path d="M52.8908 25.904C52.8908 24.9048 52.8575 24.0971 52.8242 23.356H54.0982L54.1648 24.6966H54.1981C54.781 23.7474 55.6969 23.1812 56.9626 23.1812C58.8444 23.1812 60.2599 24.7715 60.2599 27.1446C60.2599 29.9424 58.553 31.3246 56.7211 31.3246C55.6886 31.3246 54.7893 30.875 54.323 30.1006H54.2897V34.3305H52.8908V25.904ZM54.2897 27.9773C54.2897 28.1855 54.323 28.377 54.3563 28.5518C54.6144 29.5344 55.4638 30.2088 56.4796 30.2088C57.9784 30.2088 58.8444 28.9848 58.8444 27.2029C58.8444 25.6375 58.02 24.3052 56.5213 24.3052C55.5554 24.3052 54.6561 24.9964 54.3813 26.0539C54.3313 26.2287 54.2814 26.4369 54.2814 26.6367V27.9773H54.2897Z" fill="white"/>
<path d="M62.0501 25.904C62.0501 24.9048 62.0168 24.0971 61.9835 23.356H63.2575L63.3241 24.6966H63.3574C63.9403 23.7474 64.8562 23.1812 66.1219 23.1812C68.0037 23.1812 69.4192 24.7715 69.4192 27.1446C69.4192 29.9424 67.7123 31.3246 65.8804 31.3246C64.8479 31.3246 63.9486 30.875 63.4823 30.1006H63.449V34.3305H62.0501V25.904ZM63.449 27.9773C63.449 28.1855 63.4823 28.377 63.5156 28.5518C63.7737 29.5344 64.6231 30.2088 65.6389 30.2088C67.1377 30.2088 68.0037 28.9848 68.0037 27.2029C68.0037 25.6375 67.1793 24.3052 65.6805 24.3052C64.7147 24.3052 63.8154 24.9964 63.5406 26.0539C63.4906 26.2287 63.4407 26.4369 63.4407 26.6367V27.9773H63.449Z" fill="white"/>
<path d="M74.4818 29.443C75.1063 29.826 76.0223 30.1508 76.9881 30.1508C78.4203 30.1508 79.253 29.3931 79.253 28.3023C79.253 27.2864 78.6701 26.7119 77.213 26.1457C75.4477 25.5212 74.3486 24.5969 74.3486 23.0731C74.3486 21.3828 75.7475 20.1255 77.8541 20.1255C78.9699 20.1255 79.7692 20.3836 80.2522 20.6584L79.8692 21.7991C79.5111 21.6076 78.795 21.2829 77.8125 21.2829C76.3303 21.2829 75.7725 22.1655 75.7725 22.9066C75.7725 23.9224 76.4303 24.422 77.9291 24.9966C79.7609 25.7043 80.6935 26.587 80.6935 28.1857C80.6935 29.8593 79.4528 31.3082 76.8966 31.3082C75.8474 31.3082 74.7066 31.0001 74.1238 30.6171L74.4818 29.443Z" fill="white"/>
<path d="M84.224 21.1162V23.3561H86.2557V24.4302H84.224V28.6352C84.224 29.6011 84.4988 30.1506 85.2815 30.1506C85.6562 30.1506 85.9226 30.1007 86.1058 30.059L86.1724 31.1165C85.8976 31.2248 85.4647 31.308 84.9151 31.308C84.2573 31.308 83.7244 31.0999 83.3913 30.7085C82.9916 30.2922 82.8418 29.5927 82.8418 28.6768V24.4302H81.6344V23.3561H82.8418V21.4909L84.224 21.1162Z" fill="white"/>
<path d="M94.7989 27.1863C94.7989 30.0673 92.8005 31.3246 90.9187 31.3246C88.8121 31.3246 87.1884 29.7759 87.1884 27.3195C87.1884 24.7133 88.8953 23.1812 91.0519 23.1812C93.2918 23.1812 94.7989 24.8049 94.7989 27.1863ZM88.6205 27.2695C88.6205 28.9765 89.6031 30.2671 90.9853 30.2671C92.3342 30.2671 93.3501 28.9932 93.3501 27.2446C93.3501 25.929 92.6923 24.247 91.0186 24.247C89.345 24.2386 88.6205 25.7874 88.6205 27.2695Z" fill="white"/>
<path d="M96.5891 25.7874C96.5891 24.8715 96.5724 24.0804 96.5225 23.356H97.7631L97.8131 24.8881H97.8797C98.2378 23.839 99.0871 23.1812 100.036 23.1812C100.195 23.1812 100.311 23.1978 100.436 23.2311V24.5634C100.294 24.5301 100.145 24.5134 99.953 24.5134C98.9538 24.5134 98.2461 25.2711 98.0546 26.3286C98.0213 26.5201 97.988 26.745 97.988 26.9864V31.1414H96.5891V25.7874Z" fill="white"/>
<path d="M102.484 27.511C102.518 29.4262 103.742 30.2172 105.149 30.2172C106.165 30.2172 106.773 30.0423 107.306 29.8175L107.547 30.825C107.047 31.0499 106.198 31.308 104.957 31.308C102.559 31.308 101.127 29.7343 101.127 27.3778C101.127 25.0297 102.509 23.1729 104.783 23.1729C107.322 23.1729 107.997 25.4127 107.997 26.8449C107.997 27.1363 107.963 27.3612 107.947 27.5027H102.484V27.511ZM106.639 26.4952C106.656 25.5959 106.265 24.197 104.674 24.197C103.242 24.197 102.618 25.521 102.501 26.4952H106.639Z" fill="white"/>
</svg>
