<svg width="385" height="373" viewBox="0 0 385 373" fill="none" xmlns="http://www.w3.org/2000/svg">
<g id="person">
<g id="Group">
<path id="Vector" d="M49.527 95.5469H370.35C378.438 95.5469 385 102.115 385 110.211V358.336C385 366.432 378.438 373 370.35 373H49.527C41.4385 373 34.8766 366.432 34.8766 358.336V110.211C34.8766 102.115 41.4385 95.5469 49.527 95.5469Z" fill="#F2F5F4"/>
<g id="Group_2">
<path id="Vector_2" d="M33.3289 77.9019H354.152C362.24 77.9019 368.802 84.4697 368.802 92.5655V340.691C368.802 348.787 362.24 355.355 354.152 355.355H33.3289C25.2405 355.355 18.6786 348.787 18.6786 340.691V92.5655C18.6786 84.4591 25.2405 77.9019 33.3289 77.9019Z" fill="white" stroke="#D7D7D7" stroke-miterlimit="10"/>
<path id="Vector_3" d="M33.3289 84.0879H354.152C362.24 84.0879 368.802 90.6558 368.802 98.7515V110.137H18.6786V98.7515C18.6786 90.6558 25.2405 84.0879 33.3289 84.0879Z" fill="#F2F5F4"/>
<path id="Vector_4" d="M33.3289 77.9019H354.152C362.24 77.9019 368.802 84.4697 368.802 92.5655V103.951H18.6786V92.5655C18.6786 84.4591 25.2405 77.9019 33.3289 77.9019Z" fill="white"/>
<path id="Vector_5" d="M350.802 95.3562C348.355 95.3562 346.371 93.3705 346.371 90.921C346.371 88.4715 348.355 86.4858 350.802 86.4858C353.249 86.4858 355.233 88.4715 355.233 90.921C355.233 93.3705 353.249 95.3562 350.802 95.3562Z" fill="#D57548"/>
<path id="Vector_6" d="M328.731 90.921C328.731 93.372 330.713 95.3562 333.162 95.3562C335.611 95.3562 337.593 93.372 337.593 90.921C337.593 88.47 335.611 86.4858 333.162 86.4858C330.713 86.4858 328.731 88.4806 328.731 90.921Z" fill="#FFB72F"/>
<path id="Vector_7" d="M311.091 90.921C311.091 93.372 313.074 95.3562 315.522 95.3562C317.971 95.3562 319.953 93.372 319.953 90.921C319.953 88.47 317.971 86.4858 315.522 86.4858C313.074 86.4965 311.091 88.4806 311.091 90.921Z" fill="#AABC95"/>
</g>
<g id="Group_3">
<path id="Vector_8" d="M125.333 126.36H57.8274" stroke="#F2F5F4" stroke-width="5" stroke-miterlimit="10" stroke-linecap="round" stroke-linejoin="round"/>
<path id="Vector_9" d="M125.333 139.463H57.8274" stroke="#F2F5F4" stroke-width="5" stroke-miterlimit="10" stroke-linecap="round" stroke-linejoin="round"/>
<path id="Vector_10" d="M125.333 152.567H57.8274" stroke="#F2F5F4" stroke-width="5" stroke-miterlimit="10" stroke-linecap="round" stroke-linejoin="round"/>
<path id="Vector_11" d="M125.333 165.682H57.8274" stroke="#F2F5F4" stroke-width="5" stroke-miterlimit="10" stroke-linecap="round" stroke-linejoin="round"/>
<path id="Vector_12" d="M125.333 178.786H57.8274" stroke="#F2F5F4" stroke-width="5" stroke-miterlimit="10" stroke-linecap="round" stroke-linejoin="round"/>
<path id="Vector_13" d="M342.639 204.994H57.8274" stroke="#F2F5F4" stroke-width="5" stroke-miterlimit="10" stroke-linecap="round" stroke-linejoin="round"/>
<path id="Vector_14" d="M342.639 218.098H57.8274" stroke="#F2F5F4" stroke-width="5" stroke-miterlimit="10" stroke-linecap="round" stroke-linejoin="round"/>
<path id="Vector_15" d="M342.639 231.212H57.8274" stroke="#F2F5F4" stroke-width="5" stroke-miterlimit="10" stroke-linecap="round" stroke-linejoin="round"/>
<path id="Vector_16" d="M342.639 244.316H57.8274" stroke="#F2F5F4" stroke-width="5" stroke-miterlimit="10" stroke-linecap="round" stroke-linejoin="round"/>
<path id="Vector_17" d="M342.639 257.42H57.8274" stroke="#F2F5F4" stroke-width="5" stroke-miterlimit="10" stroke-linecap="round" stroke-linejoin="round"/>
<path id="Vector_18" d="M221.991 278.566H120.16" stroke="#F2F5F4" stroke-width="5" stroke-miterlimit="10" stroke-linecap="round" stroke-linejoin="round"/>
<path id="Vector_19" d="M221.991 291.681H120.16" stroke="#F2F5F4" stroke-width="5" stroke-miterlimit="10" stroke-linecap="round" stroke-linejoin="round"/>
<path id="Vector_20" d="M221.991 304.785H120.16" stroke="#F2F5F4" stroke-width="5" stroke-miterlimit="10" stroke-linecap="round" stroke-linejoin="round"/>
<path id="Vector_21" d="M221.991 317.889H150.807" stroke="#F2F5F4" stroke-width="5" stroke-miterlimit="10" stroke-linecap="round" stroke-linejoin="round"/>
<path id="Vector_22" d="M221.991 330.993H150.807" stroke="#F2F5F4" stroke-width="5" stroke-miterlimit="10" stroke-linecap="round" stroke-linejoin="round"/>
<path id="Vector_23" d="M45.1064 274.757H109.846V332.266H45.1064V274.757Z" stroke="#F2F5F4" stroke-width="5" stroke-miterlimit="10" stroke-linecap="round" stroke-linejoin="round"/>
<path id="Vector_24" d="M277.74 126.264H342.479V183.773H277.74V126.264Z" stroke="#F2F5F4" stroke-width="5" stroke-miterlimit="10" stroke-linecap="round" stroke-linejoin="round"/>
</g>
</g>
<g id="Group_4">
<path id="Vector_25" d="M168.479 320.585H288.819C315.565 317.868 310.317 288.382 280.19 274.365C279.469 274.015 278.716 273.676 277.964 273.357L180.044 269.58C178.359 270.514 176.578 271.564 174.797 272.742C174.701 272.806 174.616 272.869 174.51 272.922C156.224 284.997 135.764 308.542 168.479 320.585Z" fill="#FBD675"/>
<path id="Vector_26" d="M295.847 355.344H156.065C165.065 308.085 182.726 282.928 182.726 282.928L268.094 277.835C288.363 297.825 294.215 333.264 295.847 355.344Z" fill="black"/>
<path id="Vector_27" d="M114.934 251.171C118.771 281.729 175.221 284.689 165.585 241.759L114.934 251.171Z" fill="#F3C755"/>
<path id="Vector_28" d="M119.397 238.343L154.751 271.012C166.295 259.065 209.09 196.06 217.104 166.595C220.539 153.979 213.723 140.812 201.415 136.419C196.306 134.594 190.931 134.541 186.023 135.973C180.67 137.533 175.867 140.843 172.517 145.639L119.397 238.343Z" fill="#F3C755"/>
<g id="Group_5">
<path id="Vector_29" d="M71.7039 172.123L80.3754 178.288C82.2199 179.593 84.7747 179.168 86.0786 177.322L91.2624 170.011C92.5663 168.165 92.1422 165.608 90.2977 164.303L81.6262 158.138C79.7817 156.833 77.2269 157.258 75.923 159.104L70.7392 166.415C69.4353 168.261 69.8593 170.818 71.7039 172.123Z" fill="#450000"/>
<path id="Vector_30" d="M53.004 164.94C68.4812 174.712 82.0714 230.672 114.107 254.556C115.909 255.893 117.796 256.954 119.715 257.781C136.273 264.721 156.054 252.497 156.054 233.144L132.319 211.445L78.8594 162.574L53.004 164.94Z" fill="#EFBFA9"/>
<path id="Vector_31" d="M119.715 257.781C136.273 264.72 156.054 252.497 156.054 233.144L132.319 211.445C147.733 240.401 139.358 261.803 119.736 257.771C119.736 257.76 119.736 257.76 119.715 257.781Z" fill="#ECB298"/>
<g id="Group_6">
<path id="Vector_32" d="M78.87 162.563L84.7534 177.004C59.1101 189.694 40.8025 177.768 29.4702 176.07L44.4704 145.65L78.87 162.563Z" fill="#EFBFA9"/>
<path id="Vector_33" d="M35.2265 159.338C35.7883 159.698 36.3077 160.165 36.7212 160.749C36.8378 160.908 36.9332 161.056 37.018 161.226C38.0039 162.913 37.9721 164.961 37.0498 166.585C36.7 167.211 36.2229 167.773 35.6293 168.229L31.9084 171.115L26.6398 175.179C25.8872 175.763 25.0285 176.102 24.1592 176.219C22.9295 176.399 21.6892 176.134 20.6292 175.465C20.0673 175.105 19.5585 174.627 19.145 174.044C17.6397 171.922 17.9471 169.057 19.7599 167.274L19.7705 167.264C19.8659 167.168 19.9825 167.073 20.0885 166.988L28.8554 159.73C28.9402 159.656 29.025 159.592 29.1204 159.529C30.9756 158.181 33.4031 158.181 35.2265 159.338Z" fill="#EFBFA9"/>
<path id="Vector_34" d="M0.0635986 145.724C-0.371033 143.114 1.5265 140.695 4.16611 140.504L26.8942 138.849L49.2089 145.289L45.435 164.484L20.8518 149.99L4.35691 149.47C2.21555 149.395 0.424026 147.825 0.0635986 145.724Z" fill="#EFBFA9"/>
<path id="Vector_35" d="M49.1983 145.289L44.6294 143.963L27.3501 147.008L24.4242 152.101L46.4951 164.526L49.1983 145.289Z" fill="#E89076"/>
<path id="Vector_36" d="M23.5868 183.338C24.6893 184.856 26.555 185.726 28.5479 185.471L39.8272 183.954C42.7212 183.561 44.8096 180.919 44.5127 178.001C44.4279 177.163 44.1311 176.399 43.7177 175.72C43.6435 175.582 43.5693 175.476 43.4845 175.37C43.4209 175.285 43.3467 175.179 43.2619 175.094C42.0746 173.64 40.1664 172.855 38.1841 173.205L26.979 175.083C25.3889 175.37 24.0532 176.346 23.3112 177.672C23.2051 177.863 23.1097 178.065 23.0143 178.267C22.6751 178.999 22.5267 179.847 22.6115 180.707C22.7069 181.726 23.0567 182.617 23.5868 183.338Z" fill="#EFBFA9"/>
<path id="Vector_37" d="M23.3111 177.683C24.0956 178.309 25.0709 178.712 26.1627 178.797L37.495 179.667C40.3254 179.89 43.7495 178.065 43.7177 174.234C42.5304 172.781 40.1664 172.866 38.1947 173.216L26.9896 175.094C25.3889 175.38 24.0532 176.356 23.3111 177.683Z" fill="#E89076"/>
<path id="Vector_38" d="M27.0426 172.282C27.8165 173.534 29.1098 174.468 30.6893 174.722L38.4491 175.794C41.3431 176.261 44.0781 174.319 44.6188 171.454C44.8414 170.181 44.64 168.961 44.0675 167.911C44.0251 167.804 43.9615 167.688 43.8979 167.603C43.0604 166.234 41.6611 165.258 39.9438 165.046L32.131 164.324C30.7953 164.165 29.4914 164.526 28.4737 165.258C27.4031 166.001 26.6398 167.136 26.3642 168.505C26.0886 169.852 26.3642 171.179 27.0426 172.282Z" fill="#E89076"/>
<path id="Vector_39" d="M41.8732 168.855C41.9368 168.951 42.011 169.046 42.0746 169.152C42.1594 169.28 42.2124 169.407 42.2866 169.513L42.276 169.524C42.7743 170.436 42.9969 171.508 42.8802 172.633C42.5728 175.54 39.9969 177.683 37.071 177.45L25.7388 176.601C25.1875 176.548 24.6681 176.431 24.1699 176.229C23.2582 175.858 22.4631 175.232 21.9013 174.458C21.138 173.407 20.7564 172.102 20.926 170.723C21.032 169.937 21.2865 169.237 21.6681 168.601C21.9755 168.123 22.3465 167.688 22.7918 167.327C23.7458 166.521 25.0179 166.054 26.3536 166.107L37.0498 166.585L37.7389 166.616C39.4562 166.701 40.9191 167.561 41.8732 168.855Z" fill="#EFBFA9"/>
<path id="Vector_40" d="M36.9544 166.521L37.6434 166.553C39.3607 166.638 40.8237 167.497 41.7777 168.791C41.8414 168.887 41.9156 168.982 41.9792 169.089C42.064 169.216 42.117 169.343 42.1912 169.449L42.1806 169.46C41.0463 171.529 38.6081 172.675 36.1911 172.102L31.813 171.051L22.3359 168.781C22.0709 168.717 21.8058 168.643 21.5726 168.526C20.82 168.229 20.1945 167.773 19.6645 167.21L19.6751 167.2C19.7705 167.104 19.8871 167.009 19.9931 166.924L28.76 159.666C28.8448 159.592 28.9402 159.529 29.025 159.465L36.912 161.152C37.9085 162.85 37.8766 164.897 36.9544 166.521Z" fill="#E89076"/>
<path id="Vector_41" d="M35.8519 151.401C36.6469 151.91 37.3148 152.61 37.7706 153.502C39.1169 156.122 38.1204 159.327 35.5656 160.749L32.3536 162.531L25.6009 166.234C24.5938 166.797 23.4701 166.988 22.4101 166.839C21.6468 166.765 20.9154 166.489 20.2581 166.075C19.4631 165.566 18.8058 164.855 18.3712 163.953C17.1627 161.502 18.0425 158.531 20.3853 157.13L23.555 155.252L26.9154 153.247L30.1699 151.316C31.9826 150.223 34.177 150.34 35.8519 151.401Z" fill="#EFBFA9"/>
<path id="Vector_42" d="M26.5232 163.507C27.0956 164.866 28.2299 165.99 29.7458 166.478L37.2512 168.728C40.0392 169.63 43.0392 168.134 44.0039 165.385C44.4173 164.155 44.4067 162.924 44.0039 161.799C43.9827 161.693 43.9297 161.566 43.8873 161.47C43.2618 159.985 42.0322 158.807 40.3784 158.34L32.7671 156.43C31.4738 156.069 30.1274 156.229 29.0038 156.791C27.8377 157.353 26.8942 158.372 26.4172 159.666C25.9507 160.95 26.0143 162.308 26.5232 163.507Z" fill="#E89076"/>
<path id="Vector_43" d="M21.0214 164.791C21.6998 166.107 22.9189 167.136 24.4666 167.497L35.5445 170.075C38.3961 170.754 41.2689 169.025 42.0215 166.213C42.3396 164.961 42.223 163.73 41.7459 162.637C41.7141 162.531 41.6505 162.415 41.6081 162.319C40.8767 160.887 39.5516 159.815 37.8661 159.465L26.7034 157.215C25.3783 156.961 24.0532 157.215 22.9825 157.873C21.8589 158.531 21.0108 159.613 20.6292 160.95C20.2581 162.287 20.4277 163.635 21.0214 164.791Z" fill="#EFBFA9"/>
<g id="Group_7">
<g id="Group_8">
<path id="Vector_44" d="M72.4883 165.29L47.3008 150.743L29.8942 154.212L36.0215 162.934L43.1983 163.645C43.2089 163.634 53.9793 184.866 72.4883 165.29Z" fill="#E89076"/>
<path id="Vector_45" d="M29.9048 154.212L25.5797 163.56C24.6363 165.587 25.5055 168.006 27.5197 168.972C29.3112 169.831 31.4632 169.29 32.6186 167.677L36.0321 162.934L29.9048 154.212Z" fill="#E89076"/>
</g>
<g id="Group_9">
<path id="Vector_46" d="M78.87 162.563L49.1983 145.289L28.6433 149.31L35.8413 159.624L44.3113 160.494C44.3113 160.494 56.9369 185.598 78.87 162.563Z" fill="#EFBFA9"/>
<path id="Vector_47" d="M26.9048 153.257L33.6151 159.836L32.343 162.531L30.6681 166.064C30.5833 166.255 30.4773 166.446 30.3819 166.605C29.2582 168.388 27.0956 169.247 25.0285 168.664C23.926 168.367 23.0249 167.709 22.3995 166.839C21.5726 165.714 21.244 164.25 21.615 162.807L23.5444 155.252L26.9048 153.257Z" fill="#E89076"/>
<path id="Vector_48" d="M28.6434 149.311L23.502 160.324C22.3889 162.722 23.396 165.566 25.7705 166.722C27.8801 167.752 30.4243 167.115 31.8024 165.205L35.8519 159.613L28.6434 149.311Z" fill="#EFBFA9"/>
</g>
</g>
</g>
<path id="Vector_49" d="M79.4212 161.926L64.7073 183.975L69.4565 191.392L87.3931 168.314L79.4212 161.926Z" fill="#450000"/>
</g>
<path id="Vector_50" d="M165.585 308.616L258.055 308.775L291.649 308.838C291.649 308.838 285.533 293.984 280.19 274.376C275.706 257.898 271.783 238.077 272.494 220.867C272.907 210.586 274.253 199.784 274.243 188.707C274.232 181.672 280.105 133.034 274.243 128.556C260.727 118.243 221.864 116.598 224.196 118.805L193.751 136.132C192.044 141.978 175.56 164.854 172.91 178.107C172.687 179.104 172.507 180.144 172.337 181.163C171.807 184.632 171.468 188.176 171.5 191.794C171.489 192.802 171.51 193.863 171.648 194.935C171.712 196.463 171.881 198.055 172.136 199.604C173.62 208.771 177.881 217.875 186.797 225.865L186.659 226.48L186.638 226.618L180.723 249.632L174.786 272.773L174.627 273.389L165.585 308.616Z" fill="#FBD675"/>
<path id="Vector_51" d="M174.51 272.933L174.638 273.357L254.706 297.379L258.055 308.764L260.366 316.595L266.547 320.574H288.808C315.554 317.857 310.307 288.371 280.179 274.354C275.695 257.876 271.773 238.056 272.483 220.846C272.896 210.564 274.243 199.763 274.232 188.686L243.734 157.109L244.497 231.584L191.959 240.603L180.723 249.579L174.786 272.72C174.691 272.805 174.606 272.869 174.51 272.933Z" fill="#F3C755"/>
<g id="Group_10">
<g id="Group_11">
<path id="Vector_52" d="M222.85 200.813L240.182 227.912L257.525 200.813L240.182 173.704L222.85 200.813Z" stroke="#969696" stroke-miterlimit="10"/>
<path id="Vector_53" d="M188.355 200.813L205.698 227.912L223.041 200.813L205.698 173.704L188.355 200.813Z" stroke="#969696" stroke-miterlimit="10"/>
<path id="Vector_54" d="M153.871 200.813L171.214 227.912L188.546 200.813L171.214 173.704L153.871 200.813Z" stroke="#969696" stroke-miterlimit="10"/>
</g>
</g>
<g id="Group_12">
<path id="Vector_55" d="M170.747 63.5246C159.553 63.5246 150.478 54.4417 150.478 43.2374C150.478 32.0331 159.553 22.9502 170.747 22.9502C181.941 22.9502 191.016 32.0331 191.016 43.2374C191.016 54.4417 181.941 63.5246 170.747 63.5246Z" fill="#450000"/>
<path id="Vector_56" d="M191.398 40.5744C180.203 40.5744 171.129 31.4915 171.129 20.2872C171.129 9.08289 180.203 0 191.398 0C202.592 0 211.666 9.08289 211.666 20.2872C211.666 31.4915 202.592 40.5744 191.398 40.5744Z" fill="#450000"/>
<path id="Vector_57" d="M217.889 47.9592C206.695 47.9592 197.62 38.8763 197.62 27.672C197.62 16.4676 206.695 7.38477 217.889 7.38477C229.083 7.38477 238.158 16.4676 238.158 27.672C238.158 38.8763 229.083 47.9592 217.889 47.9592Z" fill="#450000"/>
<path id="Vector_58" d="M243.32 40.0545C251.504 61.042 248.61 74.4006 235.391 83.1224L222.871 69.4455L230.366 36.5425L243.32 40.0545Z" fill="#450000"/>
<path id="Vector_59" d="M236.239 69.4453L231.479 120.545L193.454 146.276L192.913 83.2707L236.239 69.4453Z" fill="#EFBFA9"/>
<path id="Vector_60" d="M242.451 83.7271L233.44 99.4836L227.801 87.4725L242.451 83.7271Z" fill="#450000"/>
<path id="Vector_61" d="M193.263 124.747C193.263 124.747 216.723 120.513 217.401 94.019L192.913 101.998L193.263 124.747Z" fill="#E89076"/>
<path id="Vector_62" d="M177.585 32.2451C166.242 46.166 164.758 64.5009 164.758 64.5009L177.055 66.4426L186.405 36.9562L177.585 32.2451Z" fill="#450000"/>
<path id="Vector_63" d="M232.391 48.5427L228.734 63.0366L227.059 69.6469L222.574 87.3876C220.147 96.9688 212.949 104.598 203.535 107.579L188.906 112.195C176.217 116.195 163.178 107.388 162.001 94.1252C161.132 84.3954 161.143 73.0422 164.842 60.9782C169.146 46.9724 180.373 36.0224 193.73 31.6509L193.783 31.6296L196.125 30.9293L196.38 30.8657C197.546 30.558 198.754 30.3139 199.963 30.1123C202.825 29.603 205.772 29.3908 208.762 29.4757L218.228 29.7516C227.843 30.0381 234.755 39.1843 232.391 48.5427Z" fill="#EFBFA9"/>
<path id="Vector_64" d="M165.754 83.239C158.945 83.239 153.425 77.1157 153.425 69.5621C153.425 62.0086 158.945 55.8853 165.754 55.8853C172.563 55.8853 178.083 62.0086 178.083 69.5621C178.083 77.1157 172.563 83.239 165.754 83.239Z" stroke="white" stroke-miterlimit="10"/>
<g id="Group_13">
<path id="Vector_65" d="M170.397 72.438C170.058 75.9076 171.076 78.8467 172.655 79.0059C174.235 79.1544 175.793 76.47 176.122 72.9897C176.461 69.5201 175.443 66.581 173.864 66.4219C172.284 66.2733 170.726 68.9684 170.397 72.438Z" fill="black"/>
<path id="Vector_66" d="M180.426 67.2705C177.245 74.9206 172.009 76.491 168.362 76.544C166.019 76.5759 164.1 78.3903 163.91 80.7246C163.666 83.8016 165.245 86.7407 167.959 88.2155L177.553 93.4359C182.938 95.2397 188.694 92.0141 189.977 86.4754L194.323 67.7268L180.426 67.2705Z" fill="#EFBFA9"/>
<g id="Group_14">
<path id="Vector_67" d="M174.012 92.2159L174.595 91.1442L168.256 87.6958C165.754 86.3377 164.291 83.632 164.524 80.7884C164.683 78.7618 166.348 77.2021 168.373 77.1702C172.327 77.1172 177.722 75.3877 180.998 67.5147L179.864 67.0479C176.853 74.3054 171.945 75.897 168.351 75.9394C165.691 75.9819 163.517 78.0191 163.305 80.6823C163.04 84.0034 164.758 87.1759 167.673 88.7675L174.012 92.2159Z" fill="#E89076"/>
</g>
<path id="Vector_68" d="M191.461 75.5786C191.122 79.0483 192.14 81.9873 193.719 82.1465C195.299 82.295 196.857 79.6106 197.186 76.1304C197.525 72.6608 196.507 69.7217 194.928 69.5625C193.348 69.414 191.79 72.109 191.461 75.5786Z" fill="black"/>
<path id="Vector_69" d="M200.387 61.7847C208.274 65.074 210.447 61.0208 204.786 57.5936C198.701 53.9011 190.571 57.6891 200.387 61.7847Z" fill="#450000"/>
<path id="Vector_70" d="M177.648 58.0818C183.807 57.0844 182.09 53.201 176.949 53.1479C171.415 53.0843 169.994 59.3232 177.648 58.0818Z" fill="#450000"/>
<path id="Vector_71" d="M177.532 94.7833L191.737 93.6904C191.737 93.6904 190.136 101.903 186.023 102.784C181.528 103.749 177.532 94.7833 177.532 94.7833Z" fill="white"/>
</g>
<path id="Vector_72" d="M196.952 89.531C190.143 89.531 184.624 83.4077 184.624 75.8541C184.624 68.3006 190.143 62.1772 196.952 62.1772C203.761 62.1772 209.281 68.3006 209.281 75.8541C209.281 83.4077 203.761 89.531 196.952 89.531Z" stroke="white" stroke-miterlimit="10"/>
<path id="Vector_73" d="M209.26 73.2972L223.062 69.3926" stroke="white" stroke-miterlimit="10"/>
<path id="Vector_74" d="M211.91 29.6033C204.458 47.2167 218.483 71.313 247.9 69.5623C260.282 44.5216 259.751 22.1229 211.91 29.6033Z" fill="#450000"/>
<path id="Vector_75" d="M222.013 71.5252C251.546 30.9083 266.886 95.2289 223.476 91.8548L222.013 71.5252Z" fill="#EFBFA9"/>
<path id="Vector_76" d="M222.331 45.5083L221.779 79.6209L224.642 81.5308L235.391 48.7339L222.331 45.5083Z" fill="#450000"/>
<path id="Vector_77" d="M220.709 33.2851C197.101 42.5374 175.581 34.8873 175.581 34.8873C175.581 34.8873 183.415 16.0006 220.709 33.2851Z" fill="#450000"/>
<path id="Vector_78" d="M250.55 37.1576C250.55 25.1466 263.801 30.908 254.706 38.6855C270.66 36.5316 258.585 56.3307 251.239 49.4127" fill="#450000"/>
</g>
<path id="Vector_79" d="M191.991 146.944C186.871 119.07 213.066 113.171 232.857 105.033L243.744 119.049L191.991 146.944Z" fill="white"/>
<g id="Group_15">
<path id="Vector_80" d="M285.193 226.809C264.289 222.766 245.048 228.623 255.342 249.303L287.155 251.181L285.193 226.809Z" fill="#FBD675"/>
<path id="Vector_81" d="M289.858 286.673C346.307 301.284 337.18 240.688 303.575 231.605L289.858 286.673Z" fill="#FBD675"/>
</g>
<path id="Vector_82" d="M287.324 271.373L320.929 276.328C326.939 228.666 312.819 176.675 281.208 134.742C273.829 124.949 260.154 122.498 249.829 129.108C240.935 134.817 236.949 145.777 240.098 155.868L287.324 271.373Z" fill="#FBD675"/>
<g id="Group_16">
<g id="Group_17">
<path id="Vector_83" d="M120.351 202.606L122.969 199.285L122.98 199.307C123.287 198.946 123.701 198.681 124.241 198.606L174.627 191.943C176.101 191.752 177.563 192.336 178.507 193.481L232.635 259.818C233.578 260.985 232.984 262.736 231.522 263.075L196.815 271.171C195.394 271.5 193.899 271.086 192.85 270.068L123.648 202.596H120.351V202.606Z" fill="#E5EBEA"/>
<path id="Vector_84" d="M230.069 263.065L175.941 196.728C174.998 195.572 173.535 194.999 172.062 195.19L121.676 201.853C120.001 202.076 119.312 204.135 120.531 205.312L190.284 273.315C191.334 274.333 192.829 274.747 194.249 274.418L228.956 266.322C230.419 265.983 231.013 264.232 230.069 263.065Z" fill="white"/>
<path id="Vector_85" d="M166.329 234.917C161.723 230.719 159.804 225.322 162.042 222.86C164.281 220.399 169.83 221.807 174.436 226.004C179.042 230.202 180.961 235.6 178.722 238.061C176.483 240.522 170.935 239.114 166.329 234.917Z" fill="#E5EBEA"/>
<path id="Vector_86" d="M170.26 202.257C170.938 203.392 172.295 204.294 173.27 204.272C174.256 204.251 174.5 203.318 173.811 202.172C173.132 201.036 171.775 200.134 170.8 200.156C169.825 200.177 169.581 201.121 170.26 202.257Z" fill="#E5EBEA"/>
</g>
<g id="Group_18">
<path id="Vector_87" d="M192.15 265.59L146.312 234.279L205.2 238.714L210.182 258.449L192.15 265.59Z" fill="#EFBFA9"/>
<path id="Vector_88" d="M200.557 240.762L208.846 239.595C211.295 239.245 212.758 236.687 211.815 234.396L211.518 233.685C209.726 229.356 204.606 227.509 200.461 229.695C197.684 231.159 196.03 234.13 196.242 237.26C196.401 239.467 198.383 241.07 200.557 240.762Z" fill="#EFBFA9"/>
<path id="Vector_89" d="M182.355 240.401L146.323 234.289L145.899 233.228C144.213 229.048 140.789 225.833 136.528 224.432C135.839 224.199 135.404 223.552 135.425 222.862C135.425 222.756 135.446 222.65 135.468 222.533C136.114 219.658 138.68 217.726 141.499 217.79C141.966 217.801 142.443 217.886 142.931 218.002L145.072 218.745L145.284 218.819C148.973 220.103 151.782 223.106 152.821 226.862L181.422 239.977L182.355 240.401Z" fill="#EFBFA9"/>
<path id="Vector_90" d="M168.966 241.918L152.535 236.242C150.213 229.207 146.27 226.501 142.008 225.101C141.33 224.867 140.885 224.22 140.906 223.53C140.906 223.424 140.927 223.318 140.948 223.201C141.436 220.994 143.068 219.35 145.051 218.734L145.263 218.809C148.952 220.093 151.761 223.095 152.8 226.851L155.906 234.48L168.966 241.918Z" fill="#E89076"/>
<path id="Vector_91" d="M155.927 234.491L155.503 233.43C153.828 229.26 150.394 226.045 146.132 224.634C145.348 224.369 144.881 223.552 145.061 222.745C145.814 219.392 149.196 217.323 152.524 218.204L154.878 219.021C158.556 220.305 161.387 223.318 162.425 227.074L191.959 240.603L155.927 234.491Z" fill="#EFBFA9"/>
</g>
<path id="Vector_92" d="M276.045 241.908L203.419 249.271L192.15 265.59C192.15 265.59 241.804 290.525 288.342 287.427C308.473 286.09 315.522 260.02 298.794 248.741L296.165 246.969C290.261 242.979 283.137 241.197 276.045 241.908Z" fill="#EFBFA9"/>
</g>
<path id="Vector_93" d="M293.027 326.611L209.716 338.166L205.157 308.839L286.667 308.828L293.027 326.611Z" fill="white"/>
<path id="Vector_94" d="M198.701 308.838L193.422 338.166L163.231 326.611L169.581 308.838H198.701Z" fill="white"/>
</g>
</g>
</svg>
