<svg width="63" height="55" viewBox="0 0 63 55" fill="none" xmlns="http://www.w3.org/2000/svg">
<path d="M41.7123 54.9331C42.5904 54.7258 46.5543 52.6646 48.2374 51.5425C50.4206 50.0911 51.6524 49.1032 53.4941 47.2615C59.4582 41.334 61.7146 35.1016 62.2634 23.0514C62.3488 21.3195 62.3854 16.4775 62.361 11.1598C62.3244 2.82959 62.3122 2.15878 62.1049 1.7563C61.8121 1.18306 61.2389 0.59763 60.6291 0.268324L60.129 0H49.579C40.9561 0 38.9437 0.0365896 38.5534 0.170751C37.9557 0.378092 37.1996 1.0611 36.8581 1.69532L36.5897 2.19537L36.5532 12.6112C36.5166 24.0637 36.5044 23.8076 37.2605 24.7224C37.4557 24.9663 37.907 25.3078 38.2607 25.4785L38.8949 25.7956H43.932H48.9692V26.686C48.9692 28.6374 48.4935 31.3817 47.8105 33.4307C46.2616 38.0653 43.5661 40.9925 38.4802 43.5416C37.4923 44.0416 36.5288 44.6027 36.3092 44.8344C35.7482 45.4077 35.5164 46.1151 35.5774 47.042C35.6262 47.725 35.797 48.1641 37.0776 50.8351C38.5778 53.9696 38.8583 54.3965 39.7486 54.7624C40.2975 54.9941 41.1512 55.0673 41.7123 54.9331Z" fill="#FBD675" fill-opacity="0.65"/>
<path d="M7.01303 54.5429C15.2213 50.9571 21.4781 44.8588 24.2467 37.7482C25.0395 35.7236 25.7469 32.6379 26.1494 29.4546C26.6616 25.4663 26.7104 23.9662 26.7104 12.8673C26.7104 2.63445 26.6982 2.17098 26.4787 1.73191C26.186 1.13428 25.6615 0.609826 25.0151 0.268324L24.515 0H13.9041C3.37847 0 3.2931 0 2.74425 0.256127C2.08564 0.56104 1.59778 1.0367 1.23188 1.70751C0.975758 2.19537 0.975758 2.21977 0.939167 12.6112C0.902578 24.0637 0.890381 23.8076 1.64657 24.7224C1.84171 24.9663 2.29298 25.3078 2.64668 25.4785L3.2809 25.7956H8.37905C13.343 25.7956 13.4772 25.7956 13.4772 26.0274C13.4772 26.9421 13.1601 29.6376 12.9162 30.8572C12.5381 32.7355 12.1356 33.9429 11.3428 35.6138C9.65968 39.1508 7.09841 41.5292 2.74425 43.627C0.500092 44.7003 0.0122318 45.2735 3.43323e-05 46.8347C3.43323e-05 47.6762 0.0244274 47.725 1.40264 50.5912C2.17102 52.1767 2.96379 53.6891 3.15893 53.933C4.02489 54.9819 5.47627 55.2137 7.01303 54.5429Z" fill="#FBD675" fill-opacity="0.65"/>
</svg>
