<svg width="26" height="26" viewBox="0 0 26 26" fill="none" xmlns="http://www.w3.org/2000/svg">
<circle cx="12.6339" cy="12.6339" r="12.6339" fill="#B1B1B1"/>
<path d="M16.4879 6.31689H8.32852C7.55595 6.31781 6.81528 6.62061 6.26899 7.1589C5.7227 7.69718 5.41538 8.42699 5.41446 9.18823V16.0794C5.41538 16.8407 5.7227 17.5705 6.26899 18.1088C6.81528 18.6471 7.55595 18.9499 8.32852 18.9508H16.4879C17.2605 18.9499 18.0011 18.6471 18.5474 18.1088C19.0937 17.5705 19.401 16.8407 19.402 16.0794V9.18823C19.401 8.42699 19.0937 7.69718 18.5474 7.1589C18.0011 6.62061 17.2605 6.31781 16.4879 6.31689ZM8.32852 7.46543H16.4879C16.8369 7.46611 17.1777 7.56967 17.4664 7.76279C17.7552 7.95591 17.9787 8.22975 18.1081 8.54907L13.6449 12.9474C13.3165 13.2697 12.8718 13.4507 12.4082 13.4507C11.9446 13.4507 11.4999 13.2697 11.1715 12.9474L6.7083 8.54907C6.83778 8.22975 7.06126 7.95591 7.35001 7.76279C7.63875 7.56967 7.97954 7.46611 8.32852 7.46543ZM16.4879 17.8022H8.32852C7.86481 17.8022 7.42009 17.6207 7.09219 17.2976C6.7643 16.9746 6.58009 16.5364 6.58009 16.0794V10.0496L10.3474 13.7594C10.8944 14.2971 11.6356 14.599 12.4082 14.599C13.1809 14.599 13.922 14.2971 14.469 13.7594L18.2363 10.0496V16.0794C18.2363 16.5364 18.0521 16.9746 17.7242 17.2976C17.3963 17.6207 16.9516 17.8022 16.4879 17.8022Z" fill="white"/>
</svg>
