<svg width="119" height="42" viewBox="0 0 119 42" fill="none" xmlns="http://www.w3.org/2000/svg">
<path d="M110.994 41.6666H7.35243C3.28903 41.6666 0 38.3775 0 34.3141V7.35243C0 3.28902 3.28903 0 7.35243 0H110.994C115.058 0 118.347 3.28902 118.347 7.35243V34.3141C118.347 38.3775 115.049 41.6666 110.994 41.6666Z" fill="black"/>
<path d="M11.3076 16.8696C8.77631 21.2661 10.3834 27.944 13.1894 31.9908C14.5883 34.0142 16.0038 35.8294 17.944 35.8294C17.9773 35.8294 18.0189 35.8294 18.0522 35.8294C18.9598 35.7961 19.6259 35.513 20.2588 35.2382C20.9749 34.9301 21.7159 34.622 22.8733 34.622C23.9808 34.622 24.6802 34.9301 25.363 35.2215C26.0375 35.513 26.7286 35.8127 27.7444 35.7961C29.9343 35.7544 31.2749 33.7977 32.4573 32.0657C33.6896 30.2588 34.3141 28.5102 34.5223 27.8358L34.5306 27.8108C34.5723 27.6942 34.514 27.561 34.3974 27.511L34.3808 27.5027C33.9977 27.3445 30.6171 25.8457 30.5838 21.7657C30.5505 18.4516 33.1151 16.6947 33.6314 16.3783L33.6563 16.3617C33.7146 16.3284 33.7479 16.2701 33.7646 16.2034C33.7812 16.1368 33.7646 16.0702 33.723 16.0119C31.9494 13.4223 29.2349 13.031 28.1441 12.981C27.9859 12.9644 27.8194 12.9561 27.6612 12.9561C26.3789 12.9561 25.1465 13.439 24.164 13.8304C23.4812 14.0968 22.89 14.33 22.4903 14.33C22.0323 14.33 21.4411 14.0968 20.7584 13.822C19.8424 13.4557 18.8016 13.0476 17.7025 13.0476C17.6775 13.0476 17.6525 13.0476 17.6275 13.0476C15.0629 13.081 12.6482 14.5464 11.3076 16.8696Z" fill="white"/>
<path d="M28.1608 5.84521C26.612 5.91182 24.7552 6.86106 23.6394 8.16835C22.6985 9.25914 21.7742 11.0827 22.0157 12.9229C22.0324 13.0394 22.124 13.1227 22.2405 13.1394C22.3488 13.1477 22.4487 13.1477 22.5569 13.1477C24.0724 13.1477 25.7044 12.3067 26.8202 10.9578C27.9942 9.53392 28.5854 7.70206 28.4106 6.06171C28.4022 5.93681 28.2857 5.83689 28.1608 5.84521Z" fill="white"/>
<path d="M42.5824 9.71721C43.0737 9.64227 43.6482 9.58398 44.2894 9.58398C45.4468 9.58398 46.2628 9.85044 46.8123 10.3584C47.3619 10.8663 47.6866 11.5824 47.6866 12.5899C47.6866 13.6058 47.3702 14.4384 46.7957 15.0046C46.2128 15.5875 45.2553 15.8956 44.0479 15.8956C43.4734 15.8956 42.9987 15.8706 42.5907 15.8207V9.71721H42.5824ZM43.3818 15.2211C43.5816 15.2544 43.8814 15.2628 44.1978 15.2628C45.9131 15.2628 46.8456 14.3052 46.8456 12.6232C46.854 11.1577 46.0213 10.2251 44.3227 10.2251C43.9063 10.2251 43.5982 10.2584 43.3818 10.3084V15.2211Z" fill="white"/>
<path d="M52.7659 13.5892C52.7659 15.2378 51.6168 15.9623 50.5427 15.9623C49.3353 15.9623 48.4027 15.0796 48.4027 13.6641C48.4027 12.1653 49.3853 11.291 50.6176 11.291C51.8916 11.291 52.7659 12.2153 52.7659 13.5892ZM49.2187 13.6308C49.2187 14.6133 49.7766 15.3461 50.576 15.3461C51.3503 15.3461 51.9332 14.6217 51.9332 13.6142C51.9332 12.8564 51.5585 11.8989 50.5926 11.8989C49.6351 11.8989 49.2187 12.7815 49.2187 13.6308Z" fill="white"/>
<path d="M54.0316 11.3906L54.6228 13.6555C54.756 14.1551 54.8726 14.613 54.9558 15.071H54.9808C55.0807 14.6214 55.2306 14.1384 55.3805 13.6638L56.1049 11.3906H56.7877L57.4788 13.6222C57.6453 14.1551 57.7786 14.6297 57.8785 15.0793H57.9035C57.9784 14.6297 58.095 14.1551 58.2449 13.6305L58.8777 11.3906H59.677L58.2365 15.8537H57.4955L56.8127 13.7221C56.6545 13.2225 56.5296 12.7812 56.413 12.2566H56.3963C56.2881 12.7895 56.1465 13.2558 55.9883 13.7304L55.2722 15.8537H54.5312L53.1823 11.3906H54.0316Z" fill="white"/>
<path d="M60.4847 12.5983C60.4847 12.1404 60.4764 11.7573 60.4514 11.391H61.1675L61.2175 12.1237H61.2341C61.4506 11.699 61.9669 11.2827 62.7079 11.2827C63.3241 11.2827 64.2817 11.6574 64.2817 13.1812V15.8457H63.4657V13.2728C63.4657 12.5567 63.1992 11.9572 62.4332 11.9572C61.9003 11.9572 61.4839 12.3319 61.3424 12.7898C61.3091 12.8898 61.2841 13.0313 61.2841 13.1645V15.8457H60.4681V12.5983H60.4847Z" fill="white"/>
<path d="M65.5973 9.30078H66.4133V15.8539H65.5973V9.30078Z" fill="white"/>
<path d="M71.809 13.5892C71.809 15.2378 70.6599 15.9623 69.5857 15.9623C68.3784 15.9623 67.4458 15.0796 67.4458 13.6641C67.4458 12.1653 68.4283 11.291 69.6607 11.291C70.943 11.291 71.809 12.2153 71.809 13.5892ZM68.2701 13.6308C68.2701 14.6133 68.828 15.3461 69.6274 15.3461C70.4018 15.3461 70.9846 14.6217 70.9846 13.6142C70.9846 12.8564 70.6099 11.8989 69.644 11.8989C68.6865 11.8989 68.2701 12.7815 68.2701 13.6308Z" fill="white"/>
<path d="M75.2978 15.854L75.2312 15.2878H75.2062C74.9564 15.6375 74.4818 15.9539 73.8407 15.9539C72.9331 15.9539 72.4751 15.3211 72.4751 14.6716C72.4751 13.5892 73.4327 12.998 75.1563 13.0146V12.923C75.1563 12.5567 75.0564 11.8905 74.1404 11.8905C73.7241 11.8905 73.2911 12.0154 72.9747 12.2236L72.7915 11.6907C73.1579 11.4492 73.6908 11.291 74.257 11.291C75.6226 11.291 75.9556 12.2236 75.9556 13.1146V14.7882C75.9556 15.1712 75.9723 15.5543 76.0306 15.854H75.2978ZM75.1813 13.5725C74.2903 13.5559 73.2911 13.7141 73.2911 14.58C73.2911 15.1046 73.6408 15.3544 74.0572 15.3544C74.64 15.3544 75.0064 14.9797 75.1313 14.605C75.1563 14.5218 75.1813 14.4302 75.1813 14.3469V13.5725Z" fill="white"/>
<path d="M81.1181 9.30078V14.6965C81.1181 15.0961 81.1265 15.5458 81.1514 15.8539H80.427L80.3937 15.0795H80.3771C80.1273 15.5791 79.586 15.9538 78.8533 15.9538C77.7708 15.9538 76.9382 15.0378 76.9382 13.6889C76.9298 12.2068 77.8541 11.2909 78.9449 11.2909C79.6277 11.2909 80.0856 11.6156 80.2938 11.9736H80.3105V9.30911H81.1181V9.30078ZM80.3105 13.206C80.3105 13.1061 80.3021 12.9645 80.2772 12.8646C80.1606 12.3483 79.7193 11.9237 79.1031 11.9237C78.2621 11.9237 77.7625 12.6564 77.7625 13.6473C77.7625 14.5549 78.2038 15.296 79.0781 15.296C79.6193 15.296 80.1189 14.9379 80.2688 14.3301C80.2938 14.2218 80.3021 14.1053 80.3021 13.9804V13.206H80.3105Z" fill="white"/>
<path d="M88.4456 13.5892C88.4456 15.2378 87.2965 15.9623 86.2223 15.9623C85.015 15.9623 84.0824 15.0796 84.0824 13.6641C84.0824 12.1653 85.0649 11.291 86.2973 11.291C87.5796 11.291 88.4456 12.2153 88.4456 13.5892ZM84.9067 13.6308C84.9067 14.6133 85.4646 15.3461 86.264 15.3461C87.0384 15.3461 87.6212 14.6217 87.6212 13.6142C87.6212 12.8564 87.2465 11.8989 86.2806 11.8989C85.3231 11.8989 84.9067 12.7815 84.9067 13.6308Z" fill="white"/>
<path d="M89.4614 12.5983C89.4614 12.1404 89.4531 11.7573 89.4281 11.391H90.1442L90.1942 12.1237H90.2108C90.4273 11.699 90.9436 11.2827 91.6846 11.2827C92.3008 11.2827 93.2584 11.6574 93.2584 13.1812V15.8457H92.4423V13.2728C92.4423 12.5567 92.1759 11.9572 91.4098 11.9572C90.8769 11.9572 90.4606 12.3319 90.3191 12.7898C90.2857 12.8898 90.2608 13.0313 90.2608 13.1645V15.8457H89.4448V12.5983H89.4614Z" fill="white"/>
<path d="M97.505 10.1084V11.3907H98.6707V12.0069H97.505V14.4133C97.505 14.9712 97.6632 15.2792 98.1128 15.2792C98.321 15.2792 98.4792 15.2543 98.5791 15.221L98.6124 15.8288C98.4542 15.8954 98.2044 15.9371 97.8964 15.9371C97.5217 15.9371 97.2136 15.8205 97.0221 15.5957C96.7889 15.3542 96.7056 14.9628 96.7056 14.4299V11.9902H96.0145V11.374H96.7056V10.3166L97.505 10.1084Z" fill="white"/>
<path d="M99.5701 9.30078H100.386V12.0819H100.403C100.536 11.8487 100.736 11.6489 100.986 11.5073C101.227 11.3658 101.51 11.2742 101.818 11.2742C102.418 11.2742 103.375 11.6489 103.375 13.181V15.8372H102.559V13.2726C102.559 12.5565 102.293 11.9487 101.527 11.9487C101.002 11.9487 100.586 12.315 100.436 12.7563C100.386 12.8646 100.378 12.9895 100.378 13.1477V15.8372H99.5618V9.30078H99.5701Z" fill="white"/>
<path d="M105.132 13.7724C105.149 14.8715 105.848 15.3211 106.664 15.3211C107.247 15.3211 107.597 15.2212 107.897 15.088L108.038 15.6708C107.755 15.8041 107.264 15.9456 106.556 15.9456C105.182 15.9456 104.358 15.038 104.358 13.6974C104.358 12.3485 105.149 11.291 106.448 11.291C107.905 11.291 108.296 12.5733 108.296 13.3977C108.296 13.5642 108.28 13.6891 108.271 13.7724H105.132ZM107.514 13.1895C107.522 12.6732 107.305 11.8739 106.389 11.8739C105.565 11.8739 105.207 12.6316 105.149 13.1895H107.514Z" fill="white"/>
<path d="M44.889 27.736L43.7649 31.1499H42.316L46.0047 20.3003H47.6951L51.3921 31.1499H49.8933L48.7359 27.736H44.889ZM48.4445 26.6369L47.387 23.5144C47.1455 22.8066 46.9873 22.1655 46.8208 21.5326H46.7875C46.6292 22.1738 46.4461 22.8399 46.2379 23.4977L45.1804 26.6369H48.4445Z" fill="white"/>
<path d="M52.8908 25.904C52.8908 24.9048 52.8575 24.0971 52.8242 23.356H54.0982L54.1648 24.6966H54.1981C54.781 23.7474 55.6969 23.1812 56.9626 23.1812C58.8444 23.1812 60.2599 24.7715 60.2599 27.1446C60.2599 29.9424 58.553 31.3246 56.7211 31.3246C55.6886 31.3246 54.7893 30.875 54.323 30.1006H54.2897V34.3305H52.8908V25.904ZM54.2897 27.9773C54.2897 28.1855 54.323 28.377 54.3563 28.5518C54.6144 29.5344 55.4638 30.2088 56.4796 30.2088C57.9784 30.2088 58.8444 28.9848 58.8444 27.2029C58.8444 25.6375 58.02 24.3052 56.5213 24.3052C55.5554 24.3052 54.6561 24.9964 54.3813 26.0539C54.3313 26.2287 54.2814 26.4369 54.2814 26.6367V27.9773H54.2897Z" fill="white"/>
<path d="M62.0501 25.904C62.0501 24.9048 62.0168 24.0971 61.9835 23.356H63.2575L63.3241 24.6966H63.3574C63.9403 23.7474 64.8562 23.1812 66.1219 23.1812C68.0037 23.1812 69.4192 24.7715 69.4192 27.1446C69.4192 29.9424 67.7123 31.3246 65.8804 31.3246C64.8479 31.3246 63.9486 30.875 63.4823 30.1006H63.449V34.3305H62.0501V25.904ZM63.449 27.9773C63.449 28.1855 63.4823 28.377 63.5156 28.5518C63.7737 29.5344 64.6231 30.2088 65.6389 30.2088C67.1377 30.2088 68.0037 28.9848 68.0037 27.2029C68.0037 25.6375 67.1793 24.3052 65.6805 24.3052C64.7147 24.3052 63.8154 24.9964 63.5406 26.0539C63.4906 26.2287 63.4407 26.4369 63.4407 26.6367V27.9773H63.449Z" fill="white"/>
<path d="M74.4818 29.443C75.1063 29.826 76.0223 30.1508 76.9881 30.1508C78.4203 30.1508 79.253 29.3931 79.253 28.3023C79.253 27.2864 78.6701 26.7119 77.213 26.1457C75.4477 25.5212 74.3486 24.5969 74.3486 23.0731C74.3486 21.3828 75.7475 20.1255 77.8541 20.1255C78.9699 20.1255 79.7692 20.3836 80.2522 20.6584L79.8692 21.7991C79.5111 21.6076 78.795 21.2829 77.8125 21.2829C76.3303 21.2829 75.7725 22.1655 75.7725 22.9066C75.7725 23.9224 76.4303 24.422 77.9291 24.9966C79.7609 25.7043 80.6935 26.587 80.6935 28.1857C80.6935 29.8593 79.4528 31.3082 76.8966 31.3082C75.8474 31.3082 74.7066 31.0001 74.1238 30.6171L74.4818 29.443Z" fill="white"/>
<path d="M84.224 21.1162V23.3561H86.2557V24.4302H84.224V28.6352C84.224 29.6011 84.4988 30.1506 85.2815 30.1506C85.6562 30.1506 85.9226 30.1007 86.1058 30.059L86.1724 31.1165C85.8976 31.2248 85.4647 31.308 84.9151 31.308C84.2573 31.308 83.7244 31.0999 83.3913 30.7085C82.9916 30.2922 82.8418 29.5927 82.8418 28.6768V24.4302H81.6344V23.3561H82.8418V21.4909L84.224 21.1162Z" fill="white"/>
<path d="M94.7989 27.1863C94.7989 30.0673 92.8005 31.3246 90.9187 31.3246C88.8121 31.3246 87.1884 29.7759 87.1884 27.3195C87.1884 24.7133 88.8953 23.1812 91.0519 23.1812C93.2918 23.1812 94.7989 24.8049 94.7989 27.1863ZM88.6205 27.2695C88.6205 28.9765 89.6031 30.2671 90.9853 30.2671C92.3342 30.2671 93.3501 28.9932 93.3501 27.2446C93.3501 25.929 92.6923 24.247 91.0186 24.247C89.345 24.2386 88.6205 25.7874 88.6205 27.2695Z" fill="white"/>
<path d="M96.5891 25.7874C96.5891 24.8715 96.5724 24.0804 96.5225 23.356H97.7631L97.8131 24.8881H97.8797C98.2378 23.839 99.0871 23.1812 100.036 23.1812C100.195 23.1812 100.311 23.1978 100.436 23.2311V24.5634C100.294 24.5301 100.145 24.5134 99.953 24.5134C98.9538 24.5134 98.2461 25.2711 98.0546 26.3286C98.0213 26.5201 97.988 26.745 97.988 26.9864V31.1414H96.5891V25.7874Z" fill="white"/>
<path d="M102.484 27.511C102.518 29.4262 103.742 30.2172 105.149 30.2172C106.165 30.2172 106.773 30.0423 107.306 29.8175L107.547 30.825C107.047 31.0499 106.198 31.308 104.957 31.308C102.559 31.308 101.127 29.7343 101.127 27.3778C101.127 25.0297 102.509 23.1729 104.783 23.1729C107.322 23.1729 107.997 25.4127 107.997 26.8449C107.997 27.1363 107.963 27.3612 107.947 27.5027H102.484V27.511ZM106.639 26.4952C106.656 25.5959 106.265 24.197 104.674 24.197C103.242 24.197 102.618 25.521 102.501 26.4952H106.639Z" fill="white"/>
</svg>
