<svg width="35" height="35" viewBox="0 0 35 35" fill="none" xmlns="http://www.w3.org/2000/svg">
<circle cx="17.5" cy="17.5" r="17" stroke="#AEAEAE"/>
<path d="M9.99006 17.4953L15.4896 8.28884C15.5366 8.21037 15.6002 8.16643 15.6666 8.16663H20.1662C20.3043 8.1662 20.4164 8.35325 20.4166 8.58437C20.4167 8.69579 20.3903 8.8027 20.3432 8.8814L15.0201 17.7916L20.3432 26.7019C20.4409 26.8651 20.4411 27.13 20.3436 27.2937C20.2966 27.3726 20.2328 27.4168 20.1662 27.4166H15.6666C15.6002 27.4168 15.5366 27.3729 15.4896 27.2944L9.99006 18.0879C9.89232 17.9247 9.89213 17.6597 9.98962 17.4961L9.99006 17.4953Z" fill="#FBD675"/>
</svg>
