<svg width="19" height="27" viewBox="0 0 19 27" fill="none" xmlns="http://www.w3.org/2000/svg">
<path d="M9.448 6.68C8.84 6.68 8.29067 6.78667 7.8 7C7.30933 7.20267 6.89333 7.50667 6.552 7.912C6.21067 8.30667 5.94933 8.792 5.768 9.368C5.58667 9.93333 5.496 10.5733 5.496 11.288C5.496 12.2267 5.64 13.0427 5.928 13.736C6.22667 14.4293 6.664 14.9627 7.24 15.336C7.82667 15.7093 8.55733 15.896 9.432 15.896C9.93333 15.896 10.408 15.8533 10.856 15.768C11.304 15.6827 11.7413 15.576 12.168 15.448V16.696C11.7413 16.856 11.2987 16.9733 10.84 17.048C10.392 17.1227 9.85333 17.16 9.224 17.16C8.06133 17.16 7.09067 16.92 6.312 16.44C5.53333 15.96 4.94667 15.2773 4.552 14.392C4.168 13.5067 3.976 12.4667 3.976 11.272C3.976 10.408 4.09333 9.61867 4.328 8.904C4.57333 8.18933 4.92533 7.57067 5.384 7.048C5.85333 6.52533 6.42933 6.12533 7.112 5.848C7.79467 5.56 8.57867 5.416 9.464 5.416C10.0507 5.416 10.616 5.47467 11.16 5.592C11.704 5.70933 12.1893 5.87467 12.616 6.088L12.04 7.304C11.688 7.144 11.2933 7 10.856 6.872C10.4293 6.744 9.96 6.68 9.448 6.68Z" fill="black"/>
<circle cx="9.5" cy="11.5" r="9" stroke="black"/>
</svg>
