<svg width="119" height="42" viewBox="0 0 119 42" fill="none" xmlns="http://www.w3.org/2000/svg">
<path d="M111.648 41.6666H8.00575C3.94235 41.6666 0.65332 38.3692 0.65332 34.3141V7.35243C0.65332 3.28903 3.94235 0 8.00575 0H111.648C115.711 0 119 3.28903 119 7.35243V34.3141C119 38.3692 115.703 41.6666 111.648 41.6666Z" fill="black"/>
<path d="M40.8044 11.9489L40.2049 13.7808H39.4305L41.4123 7.95215H42.3199L44.31 13.7808H43.5106L42.8861 11.9489H40.8044ZM42.7196 11.3661L42.145 9.68409C42.0118 9.30107 41.9285 8.95967 41.8453 8.61828H41.8286C41.7454 8.968 41.6454 9.31772 41.5372 9.67577L40.971 11.3661H42.7196Z" fill="white"/>
<path d="M45.2426 9.60059L46.067 11.957C46.2085 12.3317 46.3168 12.6814 46.4 13.0312H46.425C46.5166 12.6814 46.6415 12.3401 46.7831 11.957L47.5991 9.60059H48.3901L46.7497 13.7889H46.0253L44.4349 9.60059H45.2426Z" fill="white"/>
<path d="M51.3959 13.7808L51.3376 13.2563H51.3127C51.0795 13.581 50.6299 13.8808 50.0304 13.8808C49.181 13.8808 48.748 13.2812 48.748 12.6817C48.748 11.6742 49.6473 11.1163 51.2627 11.1246V11.0414C51.2627 10.6917 51.1711 10.0755 50.3135 10.0755C49.9221 10.0755 49.5224 10.2004 49.2227 10.3836L49.0478 9.88398C49.3892 9.65916 49.8971 9.50928 50.4217 9.50928C51.704 9.50928 52.0121 10.3836 52.0121 11.2162V12.7817C52.0121 13.148 52.0287 13.4977 52.0787 13.7892H51.3959V13.7808ZM51.2793 11.6492C50.4467 11.6326 49.5058 11.7825 49.5058 12.5901C49.5058 13.0814 49.8305 13.3146 50.2219 13.3146C50.7631 13.3146 51.1128 12.9648 51.2294 12.6151C51.2544 12.5402 51.271 12.4486 51.271 12.3736V11.6492H51.2793Z" fill="white"/>
<path d="M54.0937 8.41847C54.1021 8.67659 53.9106 8.88476 53.6108 8.88476C53.3443 8.88476 53.1528 8.67659 53.1528 8.41847C53.1528 8.15201 53.3527 7.94385 53.6275 7.94385C53.9189 7.95217 54.0937 8.15201 54.0937 8.41847ZM53.2444 13.7808V9.59252H54.0105V13.7808H53.2444Z" fill="white"/>
<path d="M55.2678 7.64404H56.0339V13.7808H55.2678V7.64404Z" fill="white"/>
<path d="M59.631 13.7808L59.5727 13.2563H59.5478C59.3146 13.581 58.865 13.8808 58.2655 13.8808C57.4161 13.8808 56.9832 13.2812 56.9832 12.6817C56.9832 11.6742 57.8824 11.1163 59.4978 11.1246V11.0414C59.4978 10.6917 59.4062 10.0755 58.5486 10.0755C58.1572 10.0755 57.7575 10.2004 57.4578 10.3836L57.2829 9.88398C57.6243 9.65916 58.1322 9.50928 58.6568 9.50928C59.9391 9.50928 60.2472 10.3836 60.2472 11.2162V12.7817C60.2472 13.148 60.2639 13.4977 60.3138 13.7892H59.631V13.7808ZM59.5228 11.6492C58.6901 11.6326 57.7492 11.7825 57.7492 12.5901C57.7492 13.0814 58.0739 13.3146 58.4653 13.3146C59.0065 13.3146 59.3562 12.9648 59.4728 12.6151C59.4978 12.5402 59.5145 12.4486 59.5145 12.3736V11.6492H59.5228Z" fill="white"/>
<path d="M61.4463 13.7808C61.4629 13.4977 61.4796 13.073 61.4796 12.6983V7.64404H62.2373V10.2753H62.254C62.5204 9.80897 63.0034 9.50921 63.6778 9.50921C64.7187 9.50921 65.4514 10.3752 65.4431 11.6408C65.4431 13.1396 64.5022 13.8807 63.5696 13.8807C62.9701 13.8807 62.4788 13.6476 62.1707 13.098H62.1457L62.1124 13.7891H61.4463V13.7808ZM62.2373 12.1071C62.2373 12.1987 62.254 12.2986 62.2706 12.3819C62.4122 12.9065 62.8618 13.2729 63.4114 13.2729C64.2024 13.2729 64.6854 12.6234 64.6854 11.6658C64.6854 10.8248 64.2524 10.1087 63.4364 10.1087C62.9201 10.1087 62.4372 10.4668 62.279 11.0413C62.2623 11.1246 62.2373 11.2328 62.2373 11.3494V12.1071Z" fill="white"/>
<path d="M66.4089 7.64404H67.175V13.7808H66.4089V7.64404Z" fill="white"/>
<path d="M68.8736 11.8324C68.8902 12.8649 69.5481 13.2896 70.3058 13.2896C70.847 13.2896 71.1801 13.198 71.4632 13.0731L71.5964 13.6143C71.33 13.7309 70.872 13.8724 70.2059 13.8724C68.9152 13.8724 68.1492 13.0231 68.1492 11.7658C68.1492 10.5085 68.8902 9.50928 70.1143 9.50928C71.4798 9.50928 71.8462 10.7083 71.8462 11.4827C71.8462 11.6409 71.8296 11.7575 71.8212 11.8407H68.8736V11.8324ZM71.1051 11.2829C71.1135 10.7999 70.9053 10.0505 70.0476 10.0505C69.2733 10.0505 68.9402 10.7583 68.8819 11.2829H71.1051Z" fill="white"/>
<path d="M78.4076 11.6576C78.4076 13.2064 77.3335 13.8808 76.3259 13.8808C75.1935 13.8808 74.3192 13.0482 74.3192 11.7326C74.3192 10.3337 75.2351 9.50934 76.3925 9.50934C77.5916 9.50101 78.4076 10.3753 78.4076 11.6576ZM75.0853 11.6992C75.0853 12.6152 75.6098 13.3063 76.3592 13.3063C77.0837 13.3063 77.6332 12.6235 77.6332 11.6826C77.6332 10.9748 77.2752 10.0755 76.3759 10.0755C75.4766 10.0755 75.0853 10.9082 75.0853 11.6992Z" fill="white"/>
<path d="M79.3652 10.7333C79.3652 10.3003 79.3569 9.95059 79.3319 9.60087H80.0064L80.048 10.292H80.0647C80.2728 9.8923 80.7558 9.50928 81.4469 9.50928C82.0297 9.50928 82.929 9.85067 82.929 11.2912V13.7892H82.1713V11.3744C82.1713 10.7 81.9215 10.1421 81.2054 10.1421C80.7058 10.1421 80.3145 10.5001 80.1812 10.9165C80.1479 11.0081 80.1313 11.1413 80.1313 11.2745V13.7892H79.3652V10.7333Z" fill="white"/>
<path d="M86.9257 8.40186V9.60089H88.0165V10.1838H86.9257V12.4403C86.9257 12.9565 87.0673 13.2563 87.4919 13.2563C87.6918 13.2563 87.8417 13.2313 87.9333 13.2063L87.9666 13.7725C87.8167 13.8308 87.5835 13.8808 87.2921 13.8808C86.9341 13.8808 86.651 13.7642 86.4678 13.5644C86.2513 13.3396 86.1763 12.9649 86.1763 12.4736V10.1921H85.5269V9.60922H86.1763V8.61002L86.9257 8.40186Z" fill="white"/>
<path d="M88.8659 7.64404H89.6319V10.2586H89.6486C89.7735 10.0421 89.965 9.85061 90.1898 9.71738C90.4146 9.58415 90.6811 9.50089 90.9642 9.50089C91.5221 9.50089 92.4297 9.84228 92.4297 11.2911V13.7808H91.6636V11.3744C91.6636 10.6999 91.4138 10.1337 90.6977 10.1337C90.2065 10.1337 89.8151 10.4834 89.6736 10.8914C89.6319 10.9914 89.6236 11.1079 89.6236 11.2578V13.7808H88.8575V7.64404H88.8659Z" fill="white"/>
<path d="M94.095 11.8324C94.1117 12.8649 94.7695 13.2896 95.5272 13.2896C96.0684 13.2896 96.4015 13.198 96.6846 13.0731L96.8178 13.6143C96.5514 13.7309 96.0934 13.8724 95.4273 13.8724C94.1367 13.8724 93.3706 13.0231 93.3706 11.7658C93.3706 10.5085 94.1117 9.50928 95.3357 9.50928C96.7013 9.50928 97.0676 10.7083 97.0676 11.4827C97.0676 11.6409 97.051 11.7575 97.0427 11.8407H94.095V11.8324ZM96.3266 11.2829C96.3349 10.7999 96.1267 10.0505 95.2691 10.0505C94.4947 10.0505 94.1616 10.7583 94.1034 11.2829H96.3266Z" fill="white"/>
<path d="M47.7073 29.1351C47.1411 29.335 46.0336 29.668 44.718 29.668C43.2442 29.668 42.0369 29.2933 41.0793 28.3857C40.2466 27.5781 39.722 26.2791 39.722 24.7636C39.7387 21.866 41.7288 19.7427 44.9928 19.7427C46.1169 19.7427 46.9995 19.9925 47.4159 20.1923L47.1078 21.2165C46.5915 20.9833 45.9421 20.7918 44.9595 20.7918C42.5864 20.7918 41.046 22.2657 41.046 24.7054C41.046 27.1784 42.5365 28.6355 44.8013 28.6355C45.6256 28.6355 46.1835 28.519 46.475 28.3774V25.4797H44.4932V24.4722H47.699V29.1351H47.7073Z" fill="white"/>
<path d="M55.9923 26.0209C55.9923 28.6022 54.2021 29.7263 52.5117 29.7263C50.6216 29.7263 49.1644 28.3357 49.1644 26.1292C49.1644 23.7894 50.6965 22.4238 52.6283 22.4238C54.635 22.4238 55.9923 23.881 55.9923 26.0209ZM50.4467 26.0876C50.4467 27.6197 51.3294 28.7687 52.57 28.7687C53.7857 28.7687 54.6933 27.628 54.6933 26.0542C54.6933 24.8719 54.1021 23.3731 52.6033 23.3731C51.1045 23.3731 50.4467 24.7553 50.4467 26.0876Z" fill="white"/>
<path d="M63.9276 26.0209C63.9276 28.6022 62.1374 29.7263 60.447 29.7263C58.5569 29.7263 57.0997 28.3357 57.0997 26.1292C57.0997 23.7894 58.6318 22.4238 60.5636 22.4238C62.5703 22.4238 63.9276 23.881 63.9276 26.0209ZM58.382 26.0876C58.382 27.6197 59.2647 28.7687 60.5053 28.7687C61.721 28.7687 62.6286 27.628 62.6286 26.0542C62.6286 24.8719 62.0374 23.3731 60.5386 23.3731C59.0398 23.3731 58.382 24.7553 58.382 26.0876Z" fill="white"/>
<path d="M71.5548 22.582C71.5299 23.0899 71.4965 23.6478 71.4965 24.5054V28.5605C71.4965 30.1676 71.1801 31.1418 70.4973 31.7496C69.8229 32.3825 68.8403 32.5906 67.9577 32.5906C67.1251 32.5906 66.2008 32.3908 65.6346 32.0161L65.951 31.0502C66.4173 31.3416 67.1334 31.5997 67.9993 31.5997C69.2983 31.5997 70.2475 30.9253 70.2475 29.16V28.3773H70.2226C69.8312 29.0268 69.0818 29.5514 67.9993 29.5514C66.2674 29.5514 65.0267 28.0776 65.0267 26.1458C65.0267 23.781 66.5755 22.4404 68.1742 22.4404C69.3899 22.4404 70.0477 23.0733 70.3558 23.6561H70.3808L70.4391 22.5986H71.5548V22.582ZM70.2392 25.3381C70.2392 25.1216 70.2226 24.9384 70.1643 24.7636C69.9311 24.0308 69.315 23.423 68.3907 23.423C67.175 23.423 66.309 24.4472 66.309 26.0625C66.309 27.4364 67.0002 28.5772 68.3741 28.5772C69.1568 28.5772 69.8645 28.0859 70.1393 27.2782C70.2142 27.0617 70.2392 26.8119 70.2392 26.6038V25.3381Z" fill="white"/>
<path d="M73.6115 19.3179H74.8854V29.568H73.6115V19.3179Z" fill="white"/>
<path d="M77.7248 26.3041C77.7498 28.0194 78.8489 28.7271 80.1229 28.7271C81.0305 28.7271 81.5801 28.5689 82.0547 28.3608L82.2712 29.2684C81.8216 29.4682 81.0555 29.7013 79.9481 29.7013C77.7998 29.7013 76.5092 28.2858 76.5092 26.1792C76.5092 24.0725 77.7498 22.4155 79.7899 22.4155C82.0714 22.4155 82.6792 24.4223 82.6792 25.7046C82.6792 25.9627 82.6542 26.1708 82.6376 26.2957H77.7248V26.3041ZM81.4552 25.3965C81.4718 24.5888 81.1221 23.3315 79.6983 23.3315C78.416 23.3315 77.8497 24.5138 77.7498 25.3965H81.4552Z" fill="white"/>
<path d="M87.3671 19.9508C87.9749 19.8509 88.7659 19.7593 89.7818 19.7593C91.0225 19.7593 91.9301 20.0507 92.5129 20.567C93.0458 21.0249 93.3623 21.7327 93.3623 22.607C93.3623 23.4896 93.1041 24.1807 92.6129 24.6887C91.9467 25.3964 90.8643 25.7545 89.6402 25.7545C89.2655 25.7545 88.9158 25.7378 88.6327 25.6712V29.5681H87.3754V19.9508H87.3671ZM88.6244 24.6387C88.8992 24.7136 89.2406 24.7386 89.6652 24.7386C91.1807 24.7386 92.1049 24.0059 92.1049 22.657C92.1049 21.3746 91.1973 20.7501 89.8068 20.7501C89.2572 20.7501 88.8409 20.7918 88.6244 20.8501V24.6387Z" fill="white"/>
<path d="M94.936 19.3179H96.21V29.568H94.936V19.3179Z" fill="white"/>
<path d="M102.222 29.5681L102.122 28.6854H102.08C101.689 29.235 100.94 29.7263 99.9404 29.7263C98.5248 29.7263 97.8004 28.7271 97.8004 27.7196C97.8004 26.0292 99.2992 25.105 102.005 25.1216V24.9801C102.005 24.4055 101.847 23.3647 100.415 23.3647C99.7655 23.3647 99.0827 23.5646 98.5998 23.881L98.3083 23.0483C98.8829 22.6736 99.7239 22.4321 100.606 22.4321C102.746 22.4321 103.263 23.8893 103.263 25.2882V27.9027C103.263 28.5106 103.288 29.1018 103.379 29.5764H102.222V29.5681ZM102.03 26.0043C100.64 25.9793 99.0744 26.2208 99.0744 27.578C99.0744 28.4023 99.624 28.7937 100.273 28.7937C101.181 28.7937 101.764 28.2108 101.964 27.6196C102.005 27.4864 102.039 27.3449 102.039 27.2116V26.0043H102.03Z" fill="white"/>
<path d="M105.661 22.582L107.193 26.7121C107.351 27.1783 107.526 27.7196 107.643 28.1442H107.668C107.801 27.7279 107.942 27.195 108.117 26.6871L109.499 22.5904H110.84L108.933 27.5697C108.026 29.9678 107.401 31.1918 106.535 31.9412C105.919 32.4907 105.294 32.7072 104.978 32.7655L104.662 31.6997C104.978 31.5998 105.394 31.3916 105.777 31.0752C106.127 30.8004 106.56 30.3092 106.843 29.6597C106.901 29.5265 106.943 29.4265 106.943 29.3516C106.943 29.2767 106.918 29.1767 106.86 29.0185L104.279 22.582H105.661Z" fill="white"/>
<path d="M32.3362 19.8676L27.4818 17.0615L23.485 20.9251L27.1321 24.4556L32.3279 21.458C32.611 21.2915 32.7859 21 32.7859 20.667C32.7942 20.3256 32.6193 20.0341 32.3362 19.8676Z" fill="#FFCE00"/>
<path d="M26.6575 16.5868L21.3118 13.506L9.60449 7.50244L22.8272 20.2922L26.6575 16.5868Z" fill="#00F076"/>
<path d="M9.7959 34.1563L21.3283 27.8031L26.3076 24.9304L22.8271 21.5664L9.7959 34.1563Z" fill="#F83547"/>
<path d="M8.82183 8.01855L8.80518 33.8395L22.1695 20.9249L8.82183 8.01855Z" fill="#00CCFF"/>
</svg>
