<svg width="63" height="55" viewBox="0 0 63 55" fill="none" xmlns="http://www.w3.org/2000/svg">
<path d="M20.6561 0.0668598C19.778 0.274201 15.8141 2.33541 14.131 3.45749C11.9478 4.90888 10.716 5.8968 8.87429 7.73847C2.91019 13.666 0.653834 19.8984 0.104991 31.9486C0.0196151 33.6805 -0.0169745 38.5225 0.00741854 43.8402C0.0440081 52.1704 0.0562046 52.8412 0.263545 53.2437C0.556262 53.8169 1.1295 54.4024 1.73932 54.7317L2.23938 55H12.7894C21.4123 55 23.4247 54.9634 23.815 54.8292C24.4127 54.6219 25.1688 53.9389 25.5103 53.3047L25.7787 52.8046L25.8153 42.3888C25.8518 30.9363 25.864 31.1924 25.1079 30.2776C24.9127 30.0337 24.4614 29.6922 24.1077 29.5215L23.4735 29.2044H18.4364H13.3992V28.314C13.3992 26.3626 13.8749 23.6183 14.5579 21.5693C16.1068 16.9347 18.8023 14.0075 23.8882 11.4584C24.8761 10.9584 25.8397 10.3973 26.0592 10.1656C26.6202 9.59234 26.852 8.88495 26.791 7.95801C26.7422 7.275 26.5714 6.83593 25.2908 4.16489C23.7906 1.03039 23.5101 0.603507 22.6198 0.237611C22.0709 0.00587717 21.2172 -0.067302 20.6561 0.0668598Z" fill="#FBD675" fill-opacity="0.65"/>
<path d="M55.3553 0.457144C47.1471 4.04292 40.8903 10.1412 38.1217 17.2518C37.3289 19.2764 36.6215 22.3621 36.219 25.5454C35.7067 29.5337 35.658 31.0338 35.658 42.1327C35.658 52.3656 35.6702 52.829 35.8897 53.2681C36.1824 53.8657 36.7069 54.3902 37.3533 54.7317L37.8533 55H48.4643C58.9899 55 59.0753 55 59.6241 54.7439C60.2827 54.439 60.7706 53.9633 61.1365 53.2925C61.3926 52.8046 61.3926 52.7802 61.4292 42.3888C61.4658 30.9363 61.478 31.1924 60.7218 30.2776C60.5267 30.0337 60.0754 29.6922 59.7217 29.5215L59.0875 29.2044H53.9893C49.0253 29.2044 48.8912 29.2044 48.8912 28.9726C48.8912 28.0579 49.2083 25.3624 49.4522 24.1428C49.8303 22.2645 50.2328 21.0571 51.0256 19.3861C52.7087 15.8492 55.27 13.4708 59.6241 11.373C61.8683 10.2997 62.3561 9.7265 62.3683 8.16535C62.3683 7.32379 62.3439 7.275 60.9657 4.40882C60.1974 2.82327 59.4046 1.3109 59.2094 1.06697C58.3435 0.0180695 56.8921 -0.213664 55.3553 0.457144Z" fill="#FBD675" fill-opacity="0.65"/>
</svg>
