<svg width="96" height="74" viewBox="0 0 96 74" fill="none" xmlns="http://www.w3.org/2000/svg">
<path d="M94.6104 2H1.88193V51.8395H94.6104V2Z" stroke="black" stroke-width="2.5" stroke-miterlimit="10"/>
<path d="M50.3984 28.4504L52.467 28.5607C53.846 26.106 54.9493 23.5961 55.7767 21.0034L56.88 21.4723C57.1558 21.693 57.1006 21.8309 56.7421 21.9136C55.9422 24.1753 54.9217 26.3818 53.7081 28.5607L58.8107 28.7262C58.2039 27.7608 57.7074 27.0437 57.3489 26.6024L58.3694 25.9956C59.3899 27.292 60.3276 28.7814 61.2102 30.4914L60.0794 31.1533L59.3899 29.8294H51.1155C50.8948 30.1328 50.7569 30.1328 50.6742 29.8019L50.3984 28.4504Z" fill="black"/>
<path d="M42.419 23.7676L37.4825 29.9204L38.0849 30.4037L43.0213 24.2508L42.419 23.7676Z" fill="black"/>
<path d="M36.801 24.8099H28.6369C29.1058 23.486 29.2161 22.4655 29.2161 22.3828L27.837 22.2173C27.837 22.2449 27.4233 25.5546 25.2444 27.9818L26.2649 28.892C27.0372 28.0094 27.6164 27.0716 28.0577 26.1614H32.25C32.1673 27.4302 31.6708 30.3538 28.7196 32.7809L29.6022 33.829C32.9947 31.0157 33.5739 27.6508 33.6291 26.1614H36.7734L36.801 24.8099Z" fill="black"/>
<path d="M34.8533 21.4193L34.1929 22.0049L35.8765 23.9034L36.5369 23.3178L34.8533 21.4193Z" fill="black"/>
<path d="M77.18 17.5286L76.6559 7.57178L73.0428 13.3914C73.2634 17.5286 73.4565 20.9487 73.622 23.5965C73.7874 26.2444 73.8702 28.8094 73.8978 31.3193C72.436 31.9537 70.9742 32.4502 69.5399 32.7536C68.5746 32.9742 67.3058 33.2224 65.7061 33.4982L64.0512 10.192L60.4381 16.2599L61.6517 31.54C60.1071 32.3398 57.8454 32.9742 54.8942 33.4155C51.943 33.8568 49.5986 34.0774 47.861 34.0499C47.5576 34.0499 47.2818 34.0223 47.006 34.0223L48.7436 31.3193C49.1297 30.7401 49.4883 29.9678 49.7917 29.0301C49.8744 28.7267 49.9296 28.4233 49.9296 28.175C49.9296 27.5958 49.709 27.0718 49.2401 26.6305C48.716 26.134 47.7507 25.8582 46.3992 25.8306H45.9303C44.7719 25.8306 43.8341 25.941 43.117 26.134C42.8412 26.3547 42.0138 27.2649 40.6623 28.8922C39.4211 30.354 38.8143 31.3745 38.8143 31.8985C38.8143 31.9537 38.8143 31.9813 38.8419 32.0364L39.8072 35.291L38.4006 35.5393L32.2775 36.5598C32.5809 35.7599 32.8567 35.0428 33.0498 34.4084C33.1326 34.1326 33.1877 33.8568 33.1877 33.5534C33.1877 33.3879 33.1877 33.3052 33.105 33.2776C33.0498 33.2776 32.9671 33.3328 32.9119 33.4431C32.4706 34.4912 31.7811 35.3186 30.8157 35.8426C29.6021 36.5322 26.7061 37.1114 22.1276 37.6354L22.2655 37.3872L21.3829 24.3688C21.3553 22.2175 20.7485 20.8936 19.535 20.4247C19.2591 20.3144 18.9558 20.2592 18.6248 20.2592C17.6319 20.2592 16.5286 20.8384 15.315 21.9692C14.8737 22.383 14.1842 23.238 13.3016 24.5343C12.3914 25.8306 11.564 27.2097 10.7917 28.7267C10.0194 30.2436 9.46777 31.7054 9.13679 33.0845C9.02647 33.5534 8.97131 33.9671 8.97131 34.3533C8.97131 35.098 9.19196 35.7048 9.63326 36.1461C10.5986 37.0838 11.6467 37.5527 12.7775 37.5527C13.1913 37.5527 13.605 37.4975 14.0463 37.3596C15.6184 36.8907 16.9423 36.0633 17.9628 34.8497L18.542 43.4827L18.4317 44.1998C18.4869 44.1998 18.542 44.1998 18.5972 44.1722V44.1998V44.1722C19.9763 44.0343 21.6587 43.7861 23.6446 43.4275C25.6304 43.069 27.1474 42.6553 28.2782 42.214L28.1128 43.1241C30.2641 42.7656 32.5258 42.2967 34.8702 41.7451C37.2146 41.1659 38.9246 40.6694 40.0003 40.2281C40.3865 40.1178 40.8829 39.8971 41.4346 39.5937C41.4621 39.6213 41.4897 39.6489 41.5173 39.6765C42.0689 40.035 42.7033 40.2557 43.3928 40.3384C46.5923 40.6694 49.9848 40.4212 53.5427 39.6489C57.1283 38.8766 59.8865 37.0287 61.8447 34.1326L62.2309 39.1248L62.0654 40.1178L61.9826 40.2833V40.3108C62.093 40.2832 62.2033 40.2557 62.3136 40.2281V40.3108L62.3688 40.2005C66.7542 39.0973 69.5123 38.2698 70.6156 37.663C73.9254 35.8978 76.0491 33.1397 76.9593 29.3886C77.1524 28.6991 77.2903 27.8992 77.4282 26.989C77.5385 26.0789 77.5661 25.0859 77.5109 24.0654L77.18 17.5286ZM17.2457 30.9883C16.7217 31.1262 16.1976 31.209 15.7012 31.209C15.2323 31.209 14.7634 31.1538 14.2945 31.0159C13.3292 30.7401 12.6948 30.2436 12.3362 29.5541C12.1983 29.3059 12.1156 29.0852 12.1156 28.8646C12.1156 28.6163 12.1983 28.3957 12.3914 28.175C12.7775 27.7062 13.274 27.2097 13.8808 26.7408C14.2669 26.4098 14.7082 26.2719 15.1771 26.2719C15.4253 26.2719 15.7012 26.3271 16.0046 26.4098C16.6941 26.6581 17.1354 27.2924 17.2457 28.3405C17.3285 28.9473 17.356 29.499 17.356 29.9954C17.3285 30.3264 17.3009 30.6849 17.2457 30.9883Z" fill="black"/>
<path d="M85.5925 10.3032L81.9517 16.0953L83.3584 37.0847L86.9715 31.2926L85.5925 10.3032Z" fill="black"/>
<path d="M5.38544 60.6644V71.2005H3.8133V60.6644H1V59.0923H8.19873V60.6644H5.38544Z" fill="black" stroke="black" stroke-width="0.2" stroke-miterlimit="10"/>
<path d="M19.9769 69.5454C18.7357 70.7314 17.3015 71.3381 15.7018 71.3381C13.9917 71.3381 12.5299 70.7314 11.3439 69.5454C10.1304 68.3318 9.55115 66.8975 9.55115 65.1875C9.55115 63.4775 10.1579 62.0157 11.3439 60.8297C12.5575 59.6161 13.9917 59.0093 15.7018 59.0093C17.3015 59.0093 18.8185 59.6712 20.2527 60.9676L19.0943 62.0432C18.0186 61.0779 16.8878 60.609 15.7294 60.609C14.4606 60.609 13.385 61.0503 12.4748 61.9605C11.5646 62.8707 11.1233 63.9463 11.1233 65.2151C11.1233 66.4838 11.5646 67.5871 12.4748 68.4697C13.385 69.3799 14.4606 69.8212 15.7294 69.8212C16.805 69.8212 17.7152 69.5454 18.4323 68.9662V65.3254H20.0045V69.5454H19.9769Z" fill="black" stroke="black" stroke-width="0.2" stroke-miterlimit="10"/>
<path d="M30.6771 59.1196L35.0626 71.2003H33.4077L31.8631 66.9251H28.6637L27.1191 71.2003H25.4367L29.8221 59.1196H30.6771ZM31.2839 65.353L30.2358 62.5121L29.2153 65.353H31.2839Z" fill="black" stroke="black" stroke-width="0.2" stroke-miterlimit="10"/>
<path d="M42.9248 68.5255L44.4969 69.0771C44.1108 69.6012 43.835 69.9597 43.6695 70.1252C42.8145 70.9802 41.8215 71.394 40.6355 71.394C39.4495 71.394 38.429 70.9802 37.6016 70.1252C36.7466 69.2702 36.3329 68.2773 36.3329 67.0913C36.3329 65.9053 36.7466 64.8848 37.6016 64.0573C38.4566 63.2023 39.4495 62.7886 40.6355 62.7886C41.8215 62.7886 42.8421 63.2023 43.6695 64.0573C43.835 64.2228 44.1108 64.5814 44.4969 65.1054L42.9248 65.6846C42.7317 65.4364 42.5938 65.2709 42.5111 65.2157C41.987 64.6917 41.3527 64.4435 40.608 64.4435C39.8633 64.4435 39.2289 64.7193 38.7049 65.2433C38.1808 65.7674 37.905 66.4017 37.905 67.1464C37.905 67.8911 38.1808 68.5255 38.7049 69.0495C39.2289 69.5736 39.8633 69.8494 40.608 69.8494C41.3527 69.8494 41.987 69.6012 42.5111 69.0771C42.5938 68.9392 42.7041 68.7737 42.9248 68.5255Z" fill="black" stroke="black" stroke-width="0.2" stroke-miterlimit="10"/>
<path d="M53.0468 63.9746V63.4229H54.6189V71.2009H53.0468V70.2355C52.3021 71.0078 51.4195 71.394 50.4265 71.394C49.2405 71.394 48.22 70.9802 47.3926 70.1252C46.5651 69.2978 46.1238 68.2773 46.1238 67.0913C46.1238 65.9053 46.5376 64.8848 47.3926 64.0573C48.22 63.2299 49.2405 62.7886 50.4265 62.7886C51.3919 62.8162 52.2745 63.2023 53.0468 63.9746ZM53.0468 67.6705V66.5121C52.964 66.0156 52.7158 65.5743 52.3296 65.1882C51.8056 64.6641 51.1712 64.4159 50.4265 64.4159C49.6818 64.4159 49.0474 64.6917 48.5234 65.1882C47.9994 65.7122 47.7236 66.3466 47.7236 67.0913C47.7236 67.836 47.9994 68.4703 48.5234 68.9944C49.0474 69.5184 49.6818 69.7942 50.4265 69.7942C51.1712 69.7942 51.8056 69.546 52.3296 69.022C52.7158 68.6082 52.9364 68.1669 53.0468 67.6705Z" fill="black" stroke="black" stroke-width="0.2" stroke-miterlimit="10"/>
<path d="M63.6371 63.9466V59.0923H65.2092V71.1729H63.6371V70.2076C62.8924 70.9798 62.0097 71.366 60.9892 71.366C59.8032 71.366 58.7827 70.9523 57.9553 70.0972C57.1278 69.2422 56.6866 68.2493 56.6866 67.0633C56.6866 65.8773 57.1003 64.8568 57.9553 64.0293C58.7827 63.1743 59.8032 62.7606 60.9892 62.7606C62.0097 62.7882 62.8648 63.1743 63.6371 63.9466ZM63.6371 67.6701V66.5117C63.5543 66.0152 63.3061 65.5739 62.8924 65.1878C62.3683 64.6637 61.7339 64.3879 60.9892 64.3879C60.2445 64.3879 59.6102 64.6637 59.0861 65.1878C58.5621 65.7118 58.2863 66.3462 58.2863 67.0909C58.2863 67.8356 58.5621 68.4699 59.0861 68.994C59.6102 69.518 60.2445 69.7663 60.9892 69.7663C61.7339 69.7663 62.3683 69.518 62.8924 68.994C63.3061 68.6078 63.5267 68.1665 63.6371 67.6701Z" fill="black" stroke="black" stroke-width="0.2" stroke-miterlimit="10"/>
<path d="M70.0629 69.4354C70.3112 69.6561 70.8076 69.794 71.4972 69.794C72.2419 69.794 72.8762 69.5458 73.4003 69.0217C73.4554 68.939 73.5933 68.8011 73.814 68.5528L75.3861 69.1045C75 69.6285 74.7242 69.9871 74.5587 70.1525C73.7037 71.0076 72.7107 71.4213 71.5247 71.4213C70.3387 71.4213 69.3182 71.0076 68.4908 70.1525C67.6358 69.2975 67.222 68.3046 67.222 67.1186C67.222 65.9326 67.6358 64.9121 68.4908 64.0847C69.3458 63.2296 70.3387 62.8159 71.5247 62.8159C72.5452 62.8159 73.4278 63.1193 74.2001 63.7261C74.338 63.8364 74.4484 63.9468 74.5587 64.0571C74.6138 64.1122 74.7517 64.2777 75 64.5259L74.2277 65.3258L70.0629 69.4354ZM72.6831 64.6087C72.5177 64.4708 72.1039 64.4156 71.4972 64.4156C70.7525 64.4156 70.1181 64.6914 69.594 65.2155C69.07 65.7395 68.7942 66.3739 68.7942 67.1186C68.7942 67.7254 68.8493 68.1115 68.9872 68.3046L72.6831 64.6087Z" fill="black" stroke="black" stroke-width="0.2" stroke-miterlimit="10"/>
<path d="M77.1804 63.423H78.8353V64.1401C79.1387 63.3678 79.7731 63.0093 80.6557 63.0093C81.5658 63.0093 82.0623 63.4506 82.1726 64.3056C82.4209 63.4506 83.138 63.0093 84.324 63.0093C85.4824 63.0093 86.0616 63.6712 86.0616 65.0227V71.2009H84.4067V65.7398C84.4067 64.9676 84.0758 64.5814 83.4414 64.5814C83.1656 64.5814 82.9449 64.6642 82.7519 64.8572C82.5588 65.0503 82.4484 65.6571 82.4484 66.6776V71.2009H80.7936V65.7398C80.7936 64.9676 80.4626 64.5814 79.8006 64.5814C79.5248 64.5814 79.3042 64.6642 79.1111 64.8572C78.9456 65.0227 78.8353 65.4364 78.8353 66.0984V71.2009H77.1804V63.423Z" fill="black" stroke="black" stroke-width="0.2" stroke-miterlimit="10"/>
<path d="M90.3371 73.821H88.6822L90.7508 69.4632L87.8548 63.4229H89.62L91.6058 67.6704L93.5917 63.4229H95.3569L90.3371 73.821Z" fill="black" stroke="black" stroke-width="0.2" stroke-miterlimit="10"/>
</svg>
